<svg viewBox="0 0 24 24.0013" fill="none" xmlns="http://www.w3.org/2000/svg">
    <defs/>
    <path d="M13.74 18.09C12.82 18.39 11.89 18.45 11 18.33C8.64 18 6.58 16.33 5.89 13.9L8.11 13.31C8.23 13.28 8.25 13.11 8.15 13.02L3.57 9.36C3.5 9.3 3.39 9.33 3.35 9.42L1.22 14.88C1.17 15.01 1.28 15.14 1.4 15.11L3.62 14.52C4.65 18.21 7.98 20.66 11.65 20.74C12.75 20.77 13.88 20.57 14.99 20.14C16.87 19.4 18.37 18.01 19.31 16.32L17.43 14.81C16.72 16.32 15.41 17.55 13.74 18.09Z"
          fill="#000000" fill-opacity="1.000000" fill-rule="nonzero"/>
    <path d="M20.37 9.48C19.34 5.78 16.01 3.33 12.34 3.25C11.24 3.23 10.11 3.42 9 3.85C7.12 4.6 5.62 5.98 4.68 7.68L6.56 9.18C7.27 7.67 8.58 6.44 10.25 5.9C11.17 5.6 12.1 5.54 12.99 5.66C15.35 5.99 17.41 7.66 18.1 10.09L15.88 10.68C15.76 10.71 15.74 10.88 15.84 10.97L20.42 14.63C20.49 14.69 20.6 14.66 20.64 14.57L22.77 9.11C22.82 8.98 22.71 8.85 22.59 8.88L20.37 9.48Z"
          fill="#000000" fill-opacity="1.000000" fill-rule="nonzero"/>
</svg>
