<svg viewBox="0 0 42 42" fill="none" xmlns="http://www.w3.org/2000/svg">
    <defs/>
    <rect width="41.000000" height="41.000000" transform="translate(0.500000 0.500000)" fill="#FFFFFF" fill-opacity="0"/>
    <path d="M29 36L13.66 36C12.74 36 12 35.25 12 34.33C12 33.41 12.74 32.66 13.66 32.66L16.33 32.66L16.33 31L6.33 31C4.49 31 3 29.5 3 27.66L3 9.33C3 7.49 4.49 6 6.33 6L36.33 6C38.17 6 39.66 7.49 39.66 9.33L39.66 27.66C39.66 29.5 38.17 31 36.33 31L26.33 31L26.33 32.66L29 32.66C29.92 32.66 30.66 33.41 30.66 34.33C30.66 35.25 29.92 36 29 36ZM7 10L7 27L36 27L36 10L7 10Z"
          fill="#349EEF" fill-opacity="1.000000" fill-rule="nonzero"/>
</svg>
