<svg viewBox="0 0 42 42" fill="none" xmlns="http://www.w3.org/2000/svg" xmlns:xlink="http://www.w3.org/1999/xlink">
	<defs/>
	<rect width="41.000000" height="41.000000" transform="translate(0.500000 0.500000)" fill="#FFFFFF" fill-opacity="0"/>
	<g opacity="0.200000" style="mix-blend-mode:normal">
		<path d="M4 11.55C4 7.39 7.48 4 11.75 4L20.26 4C24.52 4 28 7.38 28 11.54L28 30.44C28 34.6 24.51 38 20.24 38L11.74 38C7.47 38 4 34.61 4 30.45L4 28.85L4 11.55Z" fill="#DC0000" fill-opacity="1.000000" fill-rule="nonzero"/>
	</g>
	<path d="M37.63 20.53L32.88 15.39C32.39 14.86 31.61 14.86 31.12 15.4C30.63 15.93 30.63 16.79 31.12 17.32L33.72 20.13L31.23 20.13L17.24 20.13C16.56 20.13 16 20.74 16 21.49C16 22.25 16.56 22.86 17.24 22.86L33.72 22.86L31.12 25.67C30.63 26.2 30.63 27.06 31.12 27.59C31.36 27.86 31.68 28 32 28C32.32 28 32.64 27.86 32.88 27.6L37.63 22.46C37.86 22.2 38 21.86 38 21.49C38 21.13 37.86 20.79 37.63 20.53Z" fill="#DC0000" fill-opacity="1.000000" fill-rule="nonzero"/>
</svg>
