<svg viewBox="0 0 42 42" fill="none" xmlns="http://www.w3.org/2000/svg" xmlns:xlink="http://www.w3.org/1999/xlink">
	<defs/>
	<rect width="41.000000" height="41.000000" transform="translate(0.500000 0.500000)" fill="#FFFFFF" fill-opacity="0"/>
	<g style="mix-blend-mode:normal">
		<path d="M29.52 3L13.48 3C7.21 3 3 7.4 3 13.95L3 29.06C3 35.59 7.21 40 13.48 40L29.52 40C35.8 40 40 35.59 40 29.06L40 13.95C40 7.4 35.8 3 29.52 3Z" fill="#FF6B00" fill-opacity="1.000000" fill-rule="nonzero"/>
	</g>
	<path d="M20.0134 13.5921C20.0134 14.4692 20.7249 15.1842 21.5964 15.1842C22.4934 15.1842 23.2068 14.4692 23.2068 13.5921C23.2068 12.7151 22.4934 12 21.6145 12C20.7322 12 20.0134 12.7151 20.0134 13.5921ZM23.1843 19.3655C23.1843 18.4885 22.4692 17.7734 21.592 17.7734C20.7151 17.7734 20 18.4885 20 19.3655L20 27.408C20 28.285 20.7151 29.0001 21.592 29.0001C22.4692 29.0001 23.1843 28.285 23.1843 27.408L23.1843 19.3655Z" clip-rule="evenodd" fill="#FAF5FF" fill-opacity="1.000000" fill-rule="evenodd"/>
</svg>
