<svg viewBox="0 0 42 42" fill="none" xmlns="http://www.w3.org/2000/svg" xmlns:xlink="http://www.w3.org/1999/xlink">
	<defs/>
	<rect width="41.000000" height="41.000000" transform="translate(0.500000 0.500000)" fill="#FFFFFF" fill-opacity="0"/>
	<g opacity="0.400000" style="mix-blend-mode:normal">
		<path d="M26.89 6L32.1 6C34.25 6 35.99 7.74 35.99 9.89L35.99 15.1C35.99 17.25 34.25 19 32.1 19L26.89 19C24.74 19 22.99 17.25 22.99 15.1L22.99 9.89C22.99 7.74 24.74 6 26.89 6Z" fill="#8A1FF9" fill-opacity="1.000000" fill-rule="nonzero"/>
	</g>
	<path d="M9.89941 6L15.1006 6C17.2546 6 19 7.7454 19 9.89941L19 15.1006C19 17.2546 17.2546 19 15.1006 19L9.89941 19C7.74536 19 6 17.2546 6 15.1006L6 9.89941C6 7.7454 7.74536 6 9.89941 6ZM15.1006 23L9.89941 23C7.74536 23 6 24.7454 6 26.8994L6 32.1006C6 34.2531 7.74536 36 9.89941 36L15.1006 36C17.2546 36 19 34.2531 19 32.1006L19 26.8994C19 24.7454 17.2546 23 15.1006 23ZM26.8994 23L32.1006 23C34.2546 23 36 24.7454 36 26.8994L36 32.1006C36 34.2531 34.2546 36 32.1006 36L26.8994 36C24.7454 36 23 34.2531 23 32.1006L23 26.8994C23 24.7454 24.7454 23 26.8994 23Z" clip-rule="evenodd" fill="#8A1FF9" fill-opacity="1.000000" fill-rule="evenodd"/>
</svg>
