<svg viewBox="0 0 42 42" fill="none" xmlns="http://www.w3.org/2000/svg" xmlns:xlink="http://www.w3.org/1999/xlink">
	<defs/>
	<rect width="41.000000" height="41.000000" transform="translate(0.500000 0.500000)" fill="#FFFFFF" fill-opacity="0"/>
	<g opacity="0.400000" style="mix-blend-mode:normal">
		<path d="M23.24 8.68L23.24 9.04C22.27 9.02 21.3 9.02 20.33 9.02L20.33 8.7C20.33 7.38 19.22 5.31 17.9 5.31L15.98 5.31C13.78 5.31 12 3.56 12 1.43C12 0.64 12.66 0 13.45 0C14.27 0 14.91 0.64 14.91 1.43C14.91 2 15.39 2.45 15.98 2.45L17.9 2.45C20.83 2.47 23.22 5.82 23.24 8.68Z" fill="#00AE31" fill-opacity="1.000000" fill-rule="nonzero"/>
	</g>
	<path d="M23.0449 9.01933C24.8633 9.01933 26.6812 9.05801 28.5181 9.07734C35.1587 9.07734 40 13.9499 40 20.6786L40 29.3214C40 36.0502 35.1587 40.9227 28.5181 40.9227C25.8584 40.9807 23.1982 41 20.519 41C17.8398 41 15.1416 40.9807 12.4819 40.9227C5.84131 40.9227 1 36.0502 1 29.3214L1 20.6786C1 13.9499 5.84131 9.07734 12.501 9.07734C15.0078 9.03867 17.5723 9 20.1748 9C21.1313 9 22.0884 9 23.0449 9.01933ZM16.4287 26.3807L18.4683 26.3807C19.2646 26.3807 19.9248 25.7426 19.9248 24.9305C19.9248 24.1378 19.2646 23.4804 18.4683 23.4804L16.4287 23.4804L16.4287 21.4501C16.4287 20.6574 15.7686 20 14.9722 20C14.1562 20 13.5156 20.6574 13.5156 21.4501L13.5156 23.4804L11.4565 23.4804C10.6602 23.4804 10 24.1378 10 24.9305C10 25.7426 10.6602 26.3807 11.4565 26.3807L13.5156 26.3807L13.5156 28.4302C13.5156 29.223 14.1562 29.8804 14.9722 29.8804C15.7686 29.8804 16.4287 29.223 16.4287 28.4302L16.4287 26.3807ZM26.9185 23.1143L26.7241 23.1143C25.9082 23.1143 25.2676 22.4762 25.2676 21.6641C25.2676 20.8714 25.9082 20.214 26.7241 20.214L26.9185 20.214C27.7148 20.214 28.375 20.8714 28.375 21.6641C28.375 22.4762 27.7148 23.1143 26.9185 23.1143ZM30.2388 29.7641L30.0444 29.7641C29.2285 29.7641 28.5879 29.1261 28.5879 28.314C28.5879 27.5212 29.2285 26.8638 30.0444 26.8638L30.2388 26.8638C31.0352 26.8638 31.6953 27.5212 31.6953 28.314C31.6953 29.1261 31.0352 29.7641 30.2388 29.7641Z" clip-rule="evenodd" fill="#00AE31" fill-opacity="1.000000" fill-rule="evenodd"/>
</svg>
