<svg viewBox="0 0 19 15" fill="none" xmlns="http://www.w3.org/2000/svg">

    <defs/>
    <mask id="mask_1_50" fill="white">
        <path d="M7.55859 13.8655C7.65356 13.9552 7.77234 14 7.90308 14C8.03381 14 8.15259 13.9552 8.24768 13.8655C8.43774 13.6862 8.43774 13.3948 8.24768 13.2155L2.97644 8.24353L17.4281 8.24353C17.7439 8.24353 17.9999 7.98755 17.9999 7.67177C17.9999 7.356 17.7439 7.10002 17.4281 7.10002L2.61218 7.10002L8.24768 1.78448C8.43774 1.60518 8.43774 1.3138 8.24768 1.13448C8.0575 0.95517 7.74866 0.95517 7.55859 1.13448L1.14258 7.175C0.952515 7.35431 0.952515 7.64569 1.14258 7.825L7.55859 13.8655Z"
              clip-rule="evenodd" fill="" fill-opacity="1.000000" fill-rule="evenodd"/>
    </mask>
    <path d="M7.55859 13.8655C7.65356 13.9552 7.77234 14 7.90308 14C8.03381 14 8.15259 13.9552 8.24768 13.8655C8.43774 13.6862 8.43774 13.3948 8.24768 13.2155L2.97644 8.24353L17.4281 8.24353C17.7439 8.24353 17.9999 7.98755 17.9999 7.67177C17.9999 7.356 17.7439 7.10002 17.4281 7.10002L2.61218 7.10002L8.24768 1.78448C8.43774 1.60518 8.43774 1.3138 8.24768 1.13448C8.0575 0.95517 7.74866 0.95517 7.55859 1.13448L1.14258 7.175C0.952515 7.35431 0.952515 7.64569 1.14258 7.825L7.55859 13.8655Z"
          clip-rule="evenodd" fill="#000000" fill-opacity="1.000000" fill-rule="evenodd" mask="url(#mask_1_50)"/>
    <path d="M0.730835 8.26147L7.14722 14.3024L7.14685 14.302Q7.29686 14.4435 7.47491 14.5178Q7.67184 14.6 7.90308 14.6Q8.13432 14.6 8.33125 14.5178Q8.5093 14.4435 8.6593 14.302Q8.75216 14.2145 8.82005 14.1106Q8.86962 14.0348 8.90588 13.9503Q8.94888 13.8502 8.96996 13.7457Q8.99023 13.6451 8.99023 13.5405Q8.99023 13.436 8.96999 13.3355Q8.94891 13.2309 8.90588 13.1308Q8.86965 13.0463 8.82013 12.9705Q8.75221 12.8666 8.6593 12.779L4.48691 8.84352L17.4281 8.84352Q17.5538 8.84352 17.674 8.81777Q17.7814 8.79477 17.8844 8.75121Q17.9869 8.70786 18.0779 8.64721Q18.1737 8.58336 18.2567 8.50034Q18.3401 8.41698 18.4041 8.32076Q18.4644 8.23011 18.5076 8.12805Q18.5512 8.02487 18.5742 7.91727Q18.5999 7.79726 18.5999 7.67177Q18.5999 7.54647 18.5743 7.42663Q18.5513 7.31885 18.5076 7.21548Q18.4644 7.11336 18.404 7.02266Q18.34 6.92652 18.2567 6.84322Q18.1737 6.76019 18.0779 6.69634Q17.9869 6.63569 17.8844 6.59235Q17.7814 6.54876 17.6739 6.52575Q17.5538 6.50002 17.4281 6.50002L4.12278 6.50002L8.6593 2.22096Q8.75221 2.13338 8.82013 2.02946Q8.86965 1.9537 8.90588 1.86925Q8.94891 1.76907 8.96999 1.66447Q8.99023 1.56402 8.99023 1.45949Q8.99023 1.35486 8.96996 1.25431Q8.94888 1.1498 8.90588 1.04971Q8.86962 0.965203 8.82005 0.889391Q8.75216 0.785542 8.6593 0.698013Q8.58714 0.629944 8.50528 0.576836Q8.4096 0.514763 8.30066 0.473129Q8.21396 0.440002 8.12423 0.42188Q8.01586 0.399994 7.90308 0.399994Q7.79029 0.399994 7.68192 0.42188Q7.59219 0.440002 7.50549 0.473129Q7.39655 0.514763 7.30087 0.576836Q7.21901 0.629944 7.14685 0.698013L0.731323 6.73814Q0.635993 6.82803 0.56698 6.9349Q0.519431 7.00854 0.484375 7.09024Q0.441418 7.19024 0.420337 7.29466Q0.400024 7.39528 0.400024 7.5Q0.400024 7.60472 0.420337 7.70534Q0.441418 7.80976 0.484375 7.90976Q0.520869 7.99481 0.570814 8.07106Q0.63848 8.17435 0.730835 8.26147ZM3.48667 7.10002L2.61218 7.10002L3.24831 6.50002L8.24768 1.78448C8.43774 1.60518 8.43774 1.3138 8.24768 1.13448C8.0575 0.95517 7.74866 0.95517 7.55859 1.13448L1.14258 7.175C0.952515 7.35431 0.952515 7.64569 1.14258 7.825L7.55859 13.8655C7.65356 13.9552 7.77234 14 7.90308 14C8.03381 14 8.15259 13.9552 8.24768 13.8655C8.43774 13.6862 8.43774 13.3948 8.24768 13.2155L3.61254 8.84352L2.97644 8.24353L17.4281 8.24353C17.7439 8.24353 17.9999 7.98755 17.9999 7.67177C17.9999 7.356 17.7439 7.10002 17.4281 7.10002L3.48667 7.10002Z"
          clip-rule="evenodd" fill="#000000" fill-opacity="1.000000" fill-rule="evenodd"/>
</svg>
