<svg  viewBox="0 0 9.76001 7.57" fill="none" xmlns="http://www.w3.org/2000/svg" xmlns:xlink="http://www.w3.org/1999/xlink">
	<defs/>
	<path id="Shape" d="M9.16 0.6C9.02 0.46 8.81 0.46 8.68 0.6L3.22 6.23L1.07 4.01C0.94 3.88 0.73 3.88 0.59 4.01C0.46 4.15 0.46 4.37 0.59 4.5L2.98 6.96C3.11 7.1 3.33 7.1 3.46 6.96L9.16 1.09C9.29 0.95 9.29 0.73 9.16 0.6Z" fill="#FFFFFF" fill-opacity="1.000000" fill-rule="nonzero"/>
	<path id="Shape" d="M8.46 0.13Q8.39 0.18 8.32 0.25L8.32 0.25L3.22 5.51L1.43 3.66Q1.36 3.6 1.29 3.55Q1.22 3.5 1.15 3.47Q1.07 3.44 1 3.43Q0.92 3.41 0.83 3.41Q0.75 3.41 0.67 3.43Q0.59 3.44 0.51 3.47Q0.44 3.5 0.38 3.55Q0.3 3.6 0.23 3.66Q0.12 3.78 0.06 3.93Q0 4.08 0 4.26Q0 4.43 0.06 4.59Q0.12 4.73 0.23 4.85L2.62 7.31Q2.69 7.38 2.76 7.43Q2.83 7.47 2.9 7.5Q2.98 7.53 3.06 7.55Q3.14 7.57 3.22 7.57Q3.3 7.57 3.38 7.55Q3.46 7.53 3.54 7.5Q3.61 7.47 3.67 7.43Q3.75 7.38 3.82 7.31L9.52 1.44Q9.63 1.32 9.69 1.17Q9.76 1.02 9.76 0.84Q9.76 0.67 9.69 0.51Q9.63 0.37 9.52 0.25Q9.45 0.18 9.37 0.13Q9.31 0.09 9.24 0.06Q9.16 0.03 9.08 0.01Q9 0 8.92 0Q8.83 0 8.76 0.01Q8.68 0.03 8.6 0.06Q8.53 0.09 8.46 0.13ZM3.57 5.87L3.22 6.23L2.87 5.87L1.07 4.01C0.94 3.88 0.73 3.88 0.59 4.01C0.46 4.15 0.46 4.37 0.59 4.5L2.98 6.96C3.11 7.1 3.33 7.1 3.46 6.96L9.16 1.09C9.29 0.95 9.29 0.73 9.16 0.6C9.02 0.46 8.81 0.46 8.68 0.6L3.57 5.87Z" fill="#FFFFFF" fill-opacity="1.000000" fill-rule="evenodd"/>
</svg>
