<svg viewBox="0 0 245.877 24" fill="none" xmlns="http://www.w3.org/2000/svg" xmlns:xlink="http://www.w3.org/1999/xlink">
	<defs/>
	<path d="M57.01 18L57.01 6.95L55.67 6.95L55.67 11.15Q55.39 10.84 55.04 10.64Q54.92 10.56 54.79 10.5Q54.29 10.26 53.59 10.26Q52.82 10.26 52.21 10.57Q51.9 10.72 51.64 10.93Q51.39 11.14 51.18 11.4Q50.76 11.93 50.54 12.66Q50.31 13.38 50.31 14.22Q50.31 15.17 50.51 15.9Q50.72 16.62 51.09 17.11Q51.36 17.46 51.71 17.69Q51.85 17.78 52 17.85Q52.53 18.1 53.19 18.1Q53.96 18.1 54.57 17.78Q54.6 17.76 54.63 17.74Q54.66 17.72 54.69 17.71Q55.27 17.35 55.74 16.79L55.86 17.72Q55.89 17.86 55.98 17.93Q56.07 18 56.22 18L57.01 18ZM65.36 10.62Q64.77 10.95 64.31 11.49L64.31 6.95L62.97 6.95L62.97 18L63.83 18Q63.97 18 64.05 17.93Q64.14 17.86 64.17 17.71L64.24 17.02Q64.61 17.53 65.11 17.81Q65.12 17.81 65.13 17.82Q65.65 18.1 66.4 18.1Q67.16 18.1 67.76 17.8Q68.04 17.67 68.27 17.49Q68.56 17.27 68.8 16.97Q69.22 16.43 69.44 15.68Q69.67 14.92 69.67 14Q69.67 13.14 69.47 12.45Q69.27 11.75 68.89 11.27Q68.66 10.97 68.37 10.76Q68.19 10.63 67.98 10.54Q67.45 10.28 66.78 10.28Q65.99 10.28 65.39 10.61Q65.38 10.62 65.36 10.62ZM6.31 7.48Q5.56 7.25 4.54 7.25L1.37 7.25L1.37 18L2.81 18L2.81 13.97L4.54 13.97Q5.51 13.97 6.26 13.73Q7.01 13.47 7.51 13.02Q7.77 12.79 7.96 12.52Q8.15 12.26 8.28 11.95Q8.55 11.33 8.55 10.58Q8.55 9.82 8.3 9.21Q8.18 8.9 8 8.64Q7.81 8.38 7.56 8.15Q7.07 7.72 6.31 7.48ZM5.64 12.66Q5.16 12.82 4.54 12.82L2.81 12.82L2.81 8.4L4.54 8.4Q5.83 8.4 6.46 8.98Q6.61 9.11 6.72 9.26Q7.1 9.79 7.1 10.58Q7.1 11.07 6.93 11.49Q6.85 11.7 6.72 11.88Q6.6 12.05 6.44 12.19Q6.11 12.49 5.64 12.66ZM39.8 10.7Q39.28 11.14 38.92 11.92L38.83 10.77Q38.8 10.56 38.72 10.48Q38.63 10.4 38.42 10.4L37.65 10.4L37.65 18L38.99 18L38.99 13.19Q39.14 12.81 39.31 12.5Q39.49 12.2 39.71 11.99Q39.83 11.88 39.98 11.79Q40.09 11.73 40.21 11.68Q40.5 11.58 40.85 11.58Q41.11 11.58 41.31 11.62Q41.51 11.66 41.62 11.66Q41.7 11.66 41.75 11.62Q41.82 11.58 41.85 11.48L41.94 10.48Q41.77 10.37 41.55 10.32Q41.33 10.26 41.09 10.26Q40.55 10.26 40.13 10.49Q39.96 10.58 39.8 10.7ZM14.37 10.56Q13.7 10.28 12.86 10.28Q12.03 10.28 11.35 10.56Q10.88 10.75 10.51 11.06Q10.35 11.19 10.21 11.34Q9.74 11.85 9.48 12.58Q9.23 13.3 9.23 14.19Q9.23 15.09 9.48 15.81Q9.74 16.53 10.21 17.04Q10.34 17.18 10.48 17.31Q10.87 17.63 11.35 17.83Q12.03 18.1 12.86 18.1Q13.7 18.1 14.37 17.83Q14.83 17.63 15.21 17.33Q15.36 17.19 15.5 17.04Q15.98 16.53 16.23 15.81Q16.48 15.09 16.48 14.19Q16.48 13.3 16.23 12.58Q15.98 11.85 15.5 11.34Q15.35 11.18 15.18 11.04Q14.82 10.74 14.37 10.56ZM35.3 17.45Q35.65 17.23 35.9 16.93L35.52 16.44Q35.48 16.39 35.43 16.35Q35.36 16.31 35.27 16.31Q35.14 16.31 34.96 16.43Q34.79 16.55 34.52 16.68Q34.26 16.82 33.9 16.93Q33.53 17.05 33.03 17.05Q32.49 17.05 32.06 16.87Q31.88 16.8 31.72 16.7Q31.49 16.55 31.31 16.34Q30.99 15.98 30.82 15.45Q30.64 14.92 30.62 14.2L35.7 14.2Q35.86 14.2 35.93 14.12Q35.94 14.11 35.95 14.09Q36.02 13.99 36.02 13.67Q36.02 12.86 35.78 12.23Q35.54 11.6 35.11 11.17Q34.97 11.03 34.82 10.91Q34.5 10.66 34.11 10.51Q33.53 10.28 32.85 10.28Q32.02 10.28 31.36 10.57Q30.86 10.79 30.47 11.13Q30.35 11.24 30.24 11.36Q30.23 11.38 30.21 11.4Q29.78 11.89 29.54 12.56Q29.3 13.25 29.3 14.04Q29.3 15.03 29.56 15.78Q29.84 16.54 30.32 17.05Q30.53 17.28 30.78 17.46Q31.1 17.68 31.47 17.83Q32.13 18.1 32.92 18.1Q33.33 18.1 33.75 18.03Q34.17 17.96 34.56 17.82Q34.96 17.67 35.3 17.45ZM48.38 17.45Q48.72 17.23 48.97 16.93L48.6 16.44Q48.55 16.39 48.5 16.35Q48.43 16.31 48.34 16.31Q48.21 16.31 48.04 16.43Q47.86 16.55 47.6 16.68Q47.34 16.82 46.97 16.93Q46.61 17.05 46.11 17.05Q45.56 17.05 45.13 16.87Q44.95 16.8 44.79 16.7Q44.56 16.55 44.38 16.34Q44.07 15.98 43.89 15.45Q43.71 14.92 43.69 14.2L48.77 14.2Q48.93 14.2 49 14.12Q49.01 14.11 49.02 14.09Q49.09 13.99 49.09 13.67Q49.09 12.86 48.85 12.23Q48.61 11.6 48.19 11.17Q48.05 11.03 47.89 10.91Q47.57 10.66 47.18 10.51Q46.6 10.28 45.92 10.28Q45.09 10.28 44.43 10.57Q43.93 10.79 43.54 11.13Q43.42 11.24 43.31 11.36Q43.3 11.38 43.28 11.4Q42.85 11.89 42.61 12.56Q42.37 13.25 42.37 14.04Q42.37 15.03 42.64 15.78Q42.91 16.54 43.39 17.05Q43.61 17.28 43.86 17.46Q44.17 17.68 44.54 17.83Q45.2 18.1 45.99 18.1Q46.41 18.1 46.82 18.03Q47.24 17.96 47.64 17.82Q48.03 17.67 48.38 17.45ZM26.07 18L28.53 10.4L27.53 10.4Q27.43 10.4 27.35 10.43Q27.31 10.45 27.28 10.48Q27.22 10.52 27.19 10.57Q27.15 10.62 27.14 10.67L25.65 15.56Q25.59 15.83 25.53 16.09Q25.47 16.34 25.44 16.59Q25.38 16.34 25.31 16.08Q25.24 15.83 25.16 15.56L23.59 10.65Q23.57 10.6 23.55 10.56Q23.51 10.5 23.45 10.46Q23.45 10.45 23.44 10.45Q23.35 10.38 23.21 10.38L22.62 10.38Q22.52 10.38 22.45 10.42Q22.42 10.44 22.39 10.46Q22.35 10.49 22.32 10.53Q22.28 10.58 22.26 10.65L20.66 15.56Q20.58 15.83 20.5 16.08Q20.43 16.34 20.37 16.59Q20.29 16.11 20.16 15.56L18.71 10.67Q18.7 10.66 18.69 10.64Q18.65 10.55 18.56 10.48Q18.54 10.46 18.52 10.45Q18.42 10.4 18.29 10.4L17.25 10.4L19.7 18L20.71 18Q20.8 18 20.87 17.95Q20.97 17.89 21.01 17.74L22.72 12.59Q22.78 12.41 22.82 12.24Q22.85 12.06 22.89 11.89Q22.93 12.06 22.97 12.24Q23 12.41 23.07 12.59L24.75 17.74Q24.8 17.92 24.91 17.97Q24.96 18 25.01 18L26.07 18ZM73.49 20.24L77.73 10.4L76.67 10.4Q76.6 10.4 76.54 10.42Q76.48 10.44 76.42 10.48Q76.37 10.52 76.33 10.57Q76.29 10.62 76.27 10.67L74.3 15.45Q74.18 15.77 74.07 16.12Q73.99 15.78 73.87 15.46L71.84 10.67Q71.8 10.57 71.7 10.48L71.7 10.48Q71.6 10.4 71.42 10.4L70.27 10.4L73.4 17.55L72.02 20.57L73.01 20.57Q73.22 20.57 73.32 20.47Q73.42 20.39 73.49 20.24ZM34.68 12.52Q34.82 12.9 34.82 13.37L30.66 13.37Q30.8 12.38 31.36 11.82Q31.46 11.71 31.58 11.63Q32.1 11.26 32.88 11.26Q33.33 11.26 33.69 11.41Q33.93 11.52 34.12 11.68Q34.22 11.76 34.3 11.85Q34.31 11.86 34.32 11.87Q34.56 12.14 34.68 12.52ZM47.76 12.52Q47.89 12.9 47.89 13.37L43.74 13.37Q43.87 12.38 44.43 11.82Q44.54 11.71 44.66 11.63Q45.17 11.26 45.95 11.26Q46.41 11.26 46.76 11.41Q47 11.52 47.19 11.68Q47.29 11.76 47.38 11.85Q47.38 11.86 47.39 11.87Q47.63 12.14 47.76 12.52ZM54.86 11.51Q55.3 11.7 55.67 12.21L55.67 15.87Q55.26 16.42 54.77 16.72Q54.75 16.73 54.73 16.75Q54.25 17.02 53.62 17.02Q53.16 17.02 52.8 16.86Q52.72 16.83 52.64 16.78Q52.39 16.63 52.19 16.37Q51.95 16.02 51.82 15.49Q51.69 14.97 51.69 14.22Q51.69 12.82 52.26 12.06Q52.47 11.79 52.74 11.61Q53.22 11.3 53.89 11.3Q54.43 11.3 54.86 11.51ZM14.18 16.67Q13.67 17.06 12.86 17.06Q12.03 17.06 11.51 16.66Q11.32 16.51 11.16 16.3Q10.61 15.55 10.61 14.2Q10.61 13.52 10.75 12.99Q10.89 12.45 11.16 12.09Q11.3 11.91 11.47 11.77Q11.65 11.62 11.87 11.52Q12.3 11.33 12.86 11.33Q13.66 11.33 14.18 11.71Q14.38 11.87 14.54 12.08Q15.1 12.84 15.1 14.2Q15.1 15.55 14.54 16.3Q14.39 16.52 14.18 16.67ZM65.11 16.86Q64.68 16.66 64.31 16.16L64.31 12.49Q64.72 11.94 65.2 11.64Q65.24 11.62 65.28 11.6Q65.73 11.34 66.34 11.34Q66.95 11.34 67.38 11.62Q67.61 11.77 67.78 12Q68.29 12.66 68.29 14.05Q68.29 15.55 67.72 16.31Q67.52 16.57 67.26 16.74Q66.78 17.06 66.08 17.06Q65.57 17.06 65.15 16.88Q65.13 16.87 65.11 16.86Z" fill="#000000" fill-opacity="1.000000" fill-rule="evenodd"/>
	<path d="M170.69 9.45Q170.8 9.37 170.91 9.2L171.46 8.14Q170.89 7.6 170.05 7.3Q169.21 6.99 168.23 6.99Q167.35 6.99 166.67 7.27Q166 7.53 165.53 7.98Q165.2 8.29 164.98 8.67Q164.89 8.82 164.82 8.99Q164.69 9.32 164.63 9.66Q164.59 9.91 164.59 10.17Q164.59 10.92 164.8 11.43Q165.01 11.94 165.36 12.29Q165.55 12.48 165.77 12.63Q165.95 12.75 166.14 12.84Q166.43 12.98 166.72 13.08Q166.88 13.15 167.05 13.2Q167.52 13.35 167.96 13.48Q168.4 13.6 168.75 13.77Q169.09 13.94 169.3 14.2Q169.32 14.22 169.34 14.24Q169.52 14.49 169.52 14.87Q169.52 15.45 169.24 15.79Q169.17 15.87 169.09 15.94Q168.66 16.3 167.87 16.3Q167.33 16.3 166.94 16.15Q166.56 16 166.26 15.82Q165.97 15.64 165.75 15.49Q165.52 15.34 165.32 15.34Q165.27 15.34 165.22 15.35Q165.12 15.37 165.03 15.42Q164.94 15.47 164.87 15.55Q164.84 15.58 164.82 15.62L164.16 16.68Q164.47 17.01 164.89 17.27Q165.31 17.53 165.79 17.72Q166.26 17.9 166.78 18.01Q167.29 18.12 167.81 18.12Q168.72 18.12 169.43 17.84Q170.15 17.56 170.64 17.08Q170.83 16.89 170.98 16.67Q171.23 16.34 171.38 15.94Q171.4 15.89 171.42 15.84Q171.64 15.24 171.64 14.55Q171.64 13.87 171.43 13.4Q171.21 12.92 170.87 12.59Q170.78 12.5 170.68 12.42Q170.4 12.2 170.08 12.04Q169.72 11.86 169.35 11.73Q169.26 11.69 169.17 11.66Q168.7 11.5 168.26 11.37Q167.82 11.23 167.47 11.06Q167.12 10.88 166.9 10.65Q166.85 10.58 166.8 10.51Q166.69 10.31 166.69 10.05Q166.69 9.71 166.84 9.45Q166.93 9.28 167.08 9.14Q167.47 8.79 168.25 8.79Q168.7 8.79 169.03 8.91Q169.35 9.03 169.61 9.16Q169.86 9.29 170.05 9.41Q170.25 9.53 170.41 9.53Q170.59 9.53 170.69 9.45ZM183.39 14.77Q183.79 13.74 183.79 12.55Q183.79 11.37 183.39 10.35Q183.07 9.55 182.55 8.92Q182.41 8.75 182.26 8.59Q182.16 8.49 182.07 8.4Q181.4 7.79 180.5 7.42Q179.47 6.99 178.22 6.99Q176.97 6.99 175.94 7.42Q175.06 7.78 174.39 8.38Q174.28 8.48 174.18 8.58Q174.01 8.75 173.87 8.92Q173.35 9.55 173.04 10.34Q172.64 11.36 172.64 12.55Q172.64 13.74 173.04 14.77Q173.35 15.56 173.87 16.19Q174.01 16.36 174.18 16.53Q174.26 16.61 174.34 16.68Q175.03 17.31 175.94 17.69Q176.97 18.12 178.22 18.12Q179.47 18.12 180.5 17.69Q181.45 17.3 182.15 16.64Q182.2 16.58 182.26 16.53Q182.4 16.38 182.54 16.21Q183.07 15.58 183.39 14.77ZM187.71 11.88L187.71 8.88L192.37 8.88L192.37 7.11L185.44 7.11L185.44 18L187.71 18L187.71 13.65L191.62 13.65L191.62 11.88L187.71 11.88ZM198.45 8.93L201.64 8.93L201.64 7.11L193.02 7.11L193.02 8.93L196.2 8.93L196.2 18L198.45 18L198.45 8.93ZM214.26 18L217.63 7.11L215.86 7.11Q215.64 7.11 215.46 7.21Q215.42 7.23 215.37 7.26Q215.19 7.4 215.13 7.58Q215.12 7.6 215.12 7.61L213.43 13.74Q213.37 13.98 213.31 14.26Q213.26 14.55 213.2 14.86Q213.13 14.55 213.05 14.26Q212.98 13.98 212.89 13.74L210.93 7.61Q210.89 7.49 210.81 7.39Q210.74 7.31 210.66 7.25Q210.48 7.11 210.18 7.11L209.52 7.11Q209.3 7.11 209.12 7.21Q209.08 7.23 209.04 7.27Q208.84 7.42 208.78 7.61L206.82 13.74Q206.73 14 206.65 14.29Q206.58 14.58 206.51 14.92Q206.45 14.59 206.39 14.29Q206.32 14 206.26 13.74L204.57 7.61Q204.55 7.51 204.5 7.43Q204.43 7.32 204.31 7.25Q204.31 7.25 204.31 7.24Q204.11 7.11 203.83 7.11L201.94 7.11L205.3 18L207.34 18L209.59 10.88Q209.65 10.73 209.7 10.55Q209.75 10.37 209.8 10.17Q209.84 10.37 209.89 10.55Q209.95 10.73 210 10.88L212.22 18L214.26 18ZM225.89 18L227.64 18L223.39 7.11L221.09 7.11L216.84 18L218.6 18Q218.84 18 219.01 17.89Q219.04 17.87 219.07 17.84Q219.26 17.69 219.33 17.5L220.07 15.42L224.41 15.42L225.14 17.5Q225.19 17.63 225.27 17.72Q225.34 17.8 225.41 17.86Q225.6 18 225.89 18ZM235.29 18L237.32 18L234.79 14.08Q234.64 13.85 234.45 13.68Q234.28 13.52 234.08 13.41Q234.06 13.4 234.04 13.39Q234.59 13.2 235.02 12.89Q235.45 12.59 235.74 12.19Q235.82 12.08 235.89 11.97Q236.07 11.66 236.19 11.31Q236.34 10.82 236.34 10.29Q236.34 9.59 236.1 9.01Q236.03 8.85 235.95 8.7Q235.72 8.31 235.34 8Q234.82 7.58 234.01 7.35Q233.2 7.11 232.06 7.11L228.64 7.11L228.64 18L230.89 18L230.89 13.85L231.66 13.85Q231.96 13.85 232.11 13.94Q232.26 14.03 232.39 14.22L234.46 17.56Q234.56 17.72 234.7 17.83Q234.93 18 235.29 18ZM240.65 11.67L240.65 8.88L245.32 8.88L245.32 7.11L238.38 7.11L238.38 18L245.32 18L245.32 16.23L240.65 16.23L240.65 13.37L244.28 13.37L244.28 11.67L240.65 11.67ZM232.99 12.13Q232.6 12.26 232.05 12.26L230.89 12.26L230.89 8.82L232.06 8.82Q233.11 8.82 233.63 9.25Q233.78 9.38 233.89 9.54Q234.14 9.91 234.14 10.45Q234.14 10.84 234.02 11.17Q233.97 11.31 233.89 11.44Q233.79 11.6 233.64 11.74Q233.39 11.99 232.99 12.13ZM181.26 11.02Q181.49 11.7 181.49 12.55Q181.49 13.41 181.26 14.09Q181.04 14.77 180.62 15.24Q180.48 15.4 180.32 15.53Q180 15.8 179.59 15.97Q178.99 16.22 178.22 16.22Q177.45 16.22 176.85 15.97Q176.43 15.79 176.1 15.52Q175.95 15.39 175.81 15.24Q175.39 14.77 175.17 14.09Q174.94 13.41 174.94 12.55Q174.94 11.7 175.17 11.02Q175.39 10.34 175.81 9.86Q175.97 9.69 176.14 9.55Q176.46 9.3 176.85 9.14Q177.45 8.88 178.22 8.88Q178.99 8.88 179.59 9.14Q179.97 9.29 180.28 9.54Q180.46 9.69 180.62 9.86Q181.04 10.34 181.26 11.02ZM222.68 10.53L223.86 13.86L220.62 13.86L221.8 10.55Q221.9 10.29 222.02 9.93Q222.13 9.57 222.24 9.15Q222.34 9.56 222.46 9.92Q222.58 10.27 222.68 10.53Z" fill="#000000" fill-opacity="1.000000" fill-rule="evenodd"/>
	<path d="M91.91 17.41L83 17.41L83 7.01L85.37 7.01L85.37 15.03L91.91 15.03L91.91 17.41Z" fill="#000000" fill-opacity="1.000000" fill-rule="nonzero"/>
	<path d="M103.65 17.4L97.55 17.4L96.51 15.03L99.93 15.03L98.07 10.84L95.17 17.4L92.5 17.4L92.5 15.03L93.56 15.03L97.11 7L99.04 7L103.65 17.4Z" fill="#000000" fill-opacity="1.000000" fill-rule="nonzero"/>
	<path d="M113.9 17.4L111.52 17.4L106.62 11.5L106.62 17.4L104.24 17.4L104.24 7L106.62 7L111.52 12.89L111.52 7L113.9 7L113.9 17.4Z" fill="#000000" fill-opacity="1.000000" fill-rule="nonzero"/>
	<path d="M124.88 17.4L119.69 17.4C118.25 17.4 117.02 16.89 116.01 15.88C114.99 14.86 114.48 13.63 114.48 12.2C114.48 10.76 114.99 9.54 116.01 8.52C117.02 7.51 118.25 7 119.69 7L124.88 7L124.88 9.37L119.69 9.37C118.9 9.37 118.24 9.65 117.69 10.2C117.14 10.75 116.86 11.41 116.86 12.2C116.86 12.98 117.14 13.65 117.69 14.2C118.24 14.75 118.9 15.02 119.69 15.02L122.51 15.02L122.51 13.39L121.02 13.39L119.98 11.01L124.88 11.01L124.88 17.4Z" fill="#DC0000" fill-opacity="1.000000" fill-rule="nonzero"/>
	<path d="M136.63 17.4L130.53 17.4L129.49 15.03L132.91 15.03L131.05 10.84L128.15 17.4L125.48 17.4L125.48 15.03L126.54 15.03L130.09 7L132.02 7L136.63 17.4Z" fill="#DC0000" fill-opacity="1.000000" fill-rule="nonzero"/>
	<path d="M148.36 17.4L145.98 17.4L145.98 12.69L143.53 17.4L142.05 17.4L139.6 12.69L139.6 17.4L137.22 17.4L137.22 7L139.6 7L142.79 13.39L145.98 7L148.36 7L148.36 17.4L148.36 17.4Z" fill="#DC0000" fill-opacity="1.000000" fill-rule="nonzero"/>
	<path d="M157.86 17.4L148.95 17.4L148.95 7L157.86 7L157.86 9.38L151.33 9.38L151.33 11.01L156.38 11.01L156.38 13.39L151.33 13.39L151.33 15.02L157.86 15.02L157.86 17.4Z" fill="#DC0000" fill-opacity="1.000000" fill-rule="nonzero"/>
</svg>
