<svg viewBox="0 0 24 24" fill="none" xmlns="http://www.w3.org/2000/svg">
    <defs/>
    <rect width="23.000000" height="23.000000" transform="translate(0.500000 0.500000)" fill="#FFFFFF" fill-opacity="0"/>
    <g opacity="0.500000">
        <path d="M16.5193 4L5.88611 4C5.65112 4 5.42566 4.09335 5.25952 4.25954C5.09338 4.4257 5 4.65109 5 4.88609L5 19.0637C5 19.2987 5.09338 19.5241 5.25952 19.6903C5.42566 19.8564 5.65112 19.9498 5.88611 19.9498L6.77222 19.9498L6.77222 19.95L8.54443 19.95L8.54443 19.9498L16.5193 19.9498C17.2244 19.9498 17.9005 19.6697 18.399 19.1712C18.8976 18.6727 19.1776 17.9965 19.1776 17.2915L19.1776 6.65829C19.1776 5.95328 18.8976 5.27713 18.399 4.77859C17.9005 4.28008 17.2244 4 16.5193 4ZM13.861 18.1776L6.77222 18.1776L6.77222 5.7722L13.861 5.7722L13.861 18.1776ZM17.4054 17.2915C17.4054 17.5265 17.312 17.7519 17.1459 17.9181C16.9797 18.0842 16.7543 18.1776 16.5193 18.1776L15.6332 18.1776L15.6332 5.7722L16.5193 5.7722C16.7543 5.7722 16.9797 5.86555 17.1459 6.03174C17.312 6.19791 17.4054 6.42329 17.4054 6.65829L17.4054 17.2915Z"
              clip-rule="evenodd" fill="#000000" fill-opacity="1.000000" fill-rule="evenodd"/>
    </g>
</svg>
