<svg viewBox="0 0 14 14" fill="none" xmlns="http://www.w3.org/2000/svg" xmlns:xlink="http://www.w3.org/1999/xlink">
	<defs/>
	<rect width="13.000000" height="13.000000" transform="translate(0.500000 0.500000)" fill="#FFFFFF" fill-opacity="0"/>
	<path d="M0 7C0 3.13 3.13 0 7 0C10.86 0 14 3.13 14 7C14 10.86 10.86 14 7 14C3.13 14 0 10.86 0 7ZM7 12.6C3.9 12.6 1.4 10.09 1.4 7C1.4 3.9 3.9 1.4 7 1.4C10.09 1.4 12.6 3.9 12.6 7C12.6 10.09 10.09 12.6 7 12.6ZM7 2.83C6.61 2.83 6.3 3.14 6.3 3.53C6.3 3.92 6.61 4.23 7 4.23C7.38 4.23 7.69 3.92 7.69 3.53C7.69 3.14 7.38 2.83 7 2.83ZM6.3 6.28C6.3 5.89 6.61 5.58 7 5.58C7.38 5.58 7.69 5.89 7.69 6.28L7.69 10.48C7.69 10.87 7.38 11.18 7 11.18C6.61 11.18 6.3 10.87 6.3 10.48L6.3 6.28Z" fill="#FFFFFF" fill-opacity="1.000000" fill-rule="evenodd"/>
</svg>
