<svg viewBox="0 0 24 24" fill="none" xmlns="http://www.w3.org/2000/svg">
    <defs/>
    <rect width="23.000000" height="23.000000" transform="translate(0.500000 0.500000)" fill="#FFFFFF" fill-opacity="0"/>
    <g opacity="0.500000">
        <path d="M8.81 5C8.81 4.67 8.94 4.38 9.18 4.15C9.41 3.92 9.7 3.79 10.03 3.79L14.29 3.79C14.62 3.79 14.92 3.92 15.15 4.15C15.38 4.38 15.51 4.67 15.51 5L15.51 8C15.51 8.5 15.92 8.91 16.42 8.91C16.92 8.91 17.33 8.5 17.33 8L17.33 5C17.33 4.18 17 3.4 16.44 2.88C15.88 2.32 15.12 2 14.29 2L10.03 2C9.21 2 8.42 2.32 7.89 2.88C7.33 3.43 7 4.18 7 5L7 8C7 8.5 7.4 8.91 7.9 8.91C8.41 8.91 8.81 8.5 8.81 8L8.81 5Z"
              fill="#000000" fill-opacity="1.000000" fill-rule="nonzero"/>
        <path d="M18.5 10.5C18.17 10.18 17.7 10 17.21 10L6.81 10C6.32 10 5.85 10.18 5.52 10.5C5.19 10.81 5 11.25 5 11.72L5 14.33C5 16.19 5.79 17.85 7.04 19.05C8.3 20.24 10.08 21 11.99 21C13.94 21 15.69 20.24 16.94 19.05C18.2 17.85 18.99 16.16 18.99 14.33L18.99 11.72C19.02 11.25 18.83 10.81 18.5 10.5ZM17.21 14.33C17.21 15.68 16.61 16.94 15.69 17.82C14.73 18.7 13.45 19.27 12.03 19.27C10.61 19.27 9.29 18.7 8.36 17.82C7.44 16.91 6.84 15.68 6.84 14.33L6.84 11.72L17.21 11.72L17.21 14.33Z"
              fill="#000000" fill-opacity="1.000000" fill-rule="nonzero"/>
        <ellipse cx="12.000000" cy="15.001648" rx="1.000000" ry="1.000003" fill="#000000" fill-opacity="1.000000"/>
    </g>
</svg>
