<svg viewBox="0 0 24 24" fill="none" xmlns="http://www.w3.org/2000/svg">
    <defs/>
    <rect id="tel" width="23.000000" height="23.000000" transform="translate(0.500000 0.500000)" fill="#FFFFFF" fill-opacity="0"/>
    <g opacity="0.500000">
        <path id="Vector"
              d="M16.37 2L7.62 2C6.17 2 5 3.12 5 4.5L5 19.5C5 20.87 6.17 22 7.62 22L16.37 22C17.82 22 19 20.87 19 19.5L19 4.5C19 3.12 17.82 2 16.37 2ZM17.25 20.21L6.75 20.21L6.75 4.5C6.75 4.04 7.14 3.66 7.62 3.66L16.37 3.66C16.85 3.66 17.25 4.04 17.25 4.5L17.25 20.21Z"
              fill="#00BDEB" fill-opacity="0" fill-rule="nonzero"/>
        <path id="Vector"
              d="M16.37 2L7.62 2C6.17 2 5 3.12 5 4.5L5 19.5C5 20.87 6.17 22 7.62 22L16.37 22C17.82 22 19 20.87 19 19.5L19 4.5C19 3.12 17.82 2 16.37 2ZM8.75 20.21L6.75 20.21L6.75 18.21L6.75 4.5C6.75 4.04 7.14 3.66 7.62 3.66L16.37 3.66C16.85 3.66 17.25 4.04 17.25 4.5L17.25 18.21L17.25 20.21L15.25 20.21L8.75 20.21Z"
              fill="#000000" fill-opacity="1.000000" fill-rule="evenodd"/>
        <rect id="Rectangle 1305" x="11.000000" y="16.000000" rx="1.000000" width="2.000000" height="2.000000" fill="#000000" fill-opacity="1.000000"/>
    </g>
</svg>
