<svg width="18.000000" height="17.999878" viewBox="0 0 18 17.9999" fill="none" xmlns="http://www.w3.org/2000/svg" xmlns:xlink="http://www.w3.org/1999/xlink">
	<desc>
			Created with Pixso.
	</desc>
	<defs/>
	<g opacity="0.500000">
		<path id="-" d="M9 17.99C7.63 18 6.29 17.69 5.07 17.09C4.62 16.88 4.19 16.62 3.78 16.33L3.66 16.24C2.55 15.42 1.63 14.35 0.99 13.12C0.33 11.85 -0.01 10.43 0 8.99C0 4.02 4.02 0 9 0C13.97 0 18 4.02 18 8.99C18 10.43 17.66 11.84 17 13.12C16.36 14.35 15.45 15.42 14.33 16.24C13.91 16.55 13.47 16.82 13 17.05L12.93 17.09C11.7 17.69 10.36 18 9 17.99ZM9 13.49C7.65 13.49 6.41 14.25 5.79 15.45C7.81 16.44 10.18 16.44 12.2 15.45L12.2 15.44C11.58 14.24 10.34 13.49 9 13.49ZM9 11.69C10.94 11.7 12.74 12.75 13.7 14.45L13.71 14.43L13.73 14.42L13.71 14.44L13.7 14.44C15.98 12.48 16.79 9.3 15.74 6.48C14.69 3.67 12 1.8 9 1.8C5.99 1.8 3.3 3.67 2.25 6.48C1.2 9.3 2.01 12.48 4.29 14.44C5.25 12.75 7.05 11.7 9 11.69ZM9 10.79C7.01 10.79 5.4 9.18 5.4 7.19C5.4 5.21 7.01 3.59 9 3.59C10.98 3.59 12.6 5.21 12.6 7.19C12.6 8.15 12.22 9.07 11.54 9.74C10.87 10.42 9.95 10.79 9 10.79ZM9 5.39C8 5.39 7.2 6.2 7.2 7.19C7.2 8.19 8 8.99 9 8.99C9.99 8.99 10.79 8.19 10.79 7.19C10.79 6.2 9.99 5.39 9 5.39Z" fill="#000000" fill-opacity="1.000000" fill-rule="nonzero"/>
	</g>
</svg>
