<svg width="390.000000" height="450.118164" viewBox="0 0 390 450.118" fill="none" xmlns="http://www.w3.org/2000/svg" xmlns:xlink="http://www.w3.org/1999/xlink">
	<defs/>
	<path id="Vector" d="M81.89 65.25L97.55 56.22L195.03 0L292.51 56.22L390 112.53L390 222.67L325.85 185.54L325.85 149.52L260.44 111.78L195.03 73.97L129.62 111.78L81.89 139.3L81.89 65.25Z" fill="#DC0000" fill-opacity="1.000000" fill-rule="nonzero"/>
	<path id="Vector" d="M212.63 365.85L260.29 338.34L325.7 300.6L325.7 259.59L389.84 296.72L389.84 337.59L292.36 393.89L276.77 402.92L212.63 365.85Z" fill="#DC0000" fill-opacity="1.000000" fill-rule="nonzero"/>
	<path id="Vector" d="M194.96 450.11L97.48 393.88L0 337.58L0 225.05L0 112.52L64.14 75.45L64.14 149.5L64.14 225.05L64.14 255.85L64.14 300.59L129.55 338.33L130.22 338.7L194.96 376.14L259.1 413.12L194.96 450.11Z" fill="#000000" fill-opacity="1.000000" fill-rule="nonzero"/>
	<path id="Vector" d="M81.89 85.16L146.03 85.16L146.03 288.38L81.89 288.38L81.89 85.16Z" fill="#DC0000" fill-opacity="1.000000" fill-rule="evenodd"/>
	<path id="Vector" d="M309 347.3L276.93 402.85L81.89 288.38L113.96 232.9L309 347.3Z" fill="#DC0000" fill-opacity="1.000000" fill-rule="nonzero"/>
	<path id="Vector" d="M389.91 327.55L203.3 219.42L203.3 145.36L389.91 253.5L389.91 327.55Z" fill="#DC0000" fill-opacity="1.000000" fill-rule="nonzero"/>
</svg>
