<svg viewBox="0 0 18.75 27" fill="none" xmlns="http://www.w3.org/2000/svg" xmlns:xlink="http://www.w3.org/1999/xlink">
		<defs/>
	<path id="Vector" d="M18.02 25.65L17.53 25.65C17.53 25.65 17.53 25.64 17.53 25.64L17.51 25.58C17.51 25.54 17.5 25.5 17.49 25.46C17.48 25.44 17.48 25.43 17.47 25.41C17.46 25.36 17.45 25.31 17.43 25.26L17.43 25.24C17.42 25.19 17.4 25.13 17.38 25.08L17.37 25.02C17.36 24.99 17.34 24.95 17.33 24.91C17.33 24.89 17.32 24.87 17.31 24.85C17.3 24.81 17.29 24.78 17.28 24.74C17.27 24.72 17.26 24.71 17.26 24.69C17.24 24.64 17.22 24.6 17.21 24.55C17.2 24.54 17.2 24.53 17.2 24.53C17.18 24.47 17.16 24.42 17.13 24.37C17.13 24.35 17.12 24.33 17.11 24.31C17.1 24.28 17.08 24.25 17.07 24.21L17.04 24.15C17.03 24.12 17.01 24.09 17 24.05C16.99 24.03 16.98 24.01 16.97 23.99C16.95 23.96 16.93 23.92 16.91 23.88C16.91 23.87 16.9 23.85 16.89 23.84C16.87 23.79 16.84 23.74 16.82 23.7L16.78 23.63L16.74 23.55L16.7 23.48C16.68 23.46 16.67 23.43 16.65 23.4C16.64 23.38 16.63 23.36 16.61 23.34C16.59 23.31 16.58 23.28 16.56 23.25L16.51 23.17C16.49 23.13 16.46 23.1 16.44 23.06C16.42 23.04 16.41 23.02 16.39 22.99C16.38 22.97 16.36 22.95 16.35 22.92C16.33 22.9 16.31 22.87 16.3 22.85C16.28 22.83 16.26 22.81 16.25 22.79C16.23 22.77 16.21 22.74 16.2 22.71L16.15 22.65C16.11 22.61 16.08 22.56 16.05 22.52L16 22.46C15.98 22.44 15.96 22.41 15.94 22.39L15.9 22.33C15.88 22.31 15.86 22.28 15.83 22.26L15.79 22.21L15.72 22.13L15.68 22.09C15.6 22 15.52 21.91 15.43 21.82L15.4 21.79L15.32 21.71L15.28 21.67C15.25 21.65 15.22 21.62 15.2 21.59L15.17 21.57C15.07 21.48 14.97 21.39 14.87 21.31L14.84 21.29C14.81 21.26 14.78 21.23 14.75 21.21L14.72 21.18C14.68 21.16 14.65 21.13 14.62 21.11L14.6 21.09C14.49 21.01 14.38 20.93 14.26 20.85L14.24 20.83C14.21 20.81 14.17 20.78 14.13 20.76L14.11 20.74C14.07 20.72 14.03 20.7 14 20.67L13.99 20.67C13.86 20.59 13.74 20.51 13.6 20.44L13.6 20.43C13.56 20.41 13.52 20.39 13.48 20.37L13.46 20.36C13.24 20.24 13.01 20.13 12.78 20.03L12.76 20.03C12.7 20 12.64 19.98 12.58 19.95L13.8 19.95C14 19.95 14.16 19.73 14.16 19.47C14.16 19.2 14 18.98 13.8 18.98L13.44 18.98C13.46 18.92 13.49 18.86 13.51 18.79C13.86 18.59 14.46 18.16 15.07 17.36L15.07 17.35C15.12 17.29 15.16 17.23 15.21 17.17L15.21 17.16C15.26 17.09 15.3 17.03 15.34 16.96L15.36 16.94C15.38 16.91 15.4 16.88 15.42 16.85C15.42 16.85 15.42 16.84 15.42 16.84C15.44 16.81 15.46 16.77 15.48 16.74L15.5 16.72C15.51 16.69 15.53 16.66 15.55 16.63C15.55 16.62 15.56 16.62 15.56 16.61C15.58 16.57 15.6 16.54 15.62 16.5L15.63 16.48C15.65 16.45 15.67 16.42 15.68 16.39C15.69 16.38 15.69 16.37 15.7 16.36C15.71 16.33 15.73 16.29 15.75 16.25L15.77 16.22C15.78 16.19 15.8 16.16 15.81 16.13L15.83 16.1C15.85 16.06 15.86 16.02 15.88 15.98L15.89 15.96C15.91 15.93 15.92 15.89 15.94 15.86L15.96 15.82C15.97 15.78 15.99 15.74 16.01 15.7C16.01 15.7 16.01 15.69 16.02 15.68C16.03 15.64 16.05 15.61 16.06 15.57L16.08 15.53C16.09 15.49 16.11 15.46 16.12 15.42L16.13 15.39C16.15 15.35 16.16 15.31 16.18 15.26L16.19 15.22C16.21 15.18 16.22 15.15 16.23 15.11C16.23 15.1 16.24 15.09 16.24 15.07C16.26 15.03 16.27 14.98 16.29 14.94C16.29 14.92 16.3 14.91 16.3 14.89L16.34 14.78C16.34 14.77 16.35 14.75 16.35 14.74C16.36 14.69 16.38 14.64 16.39 14.59C16.4 14.58 16.4 14.56 16.4 14.55C16.41 14.51 16.43 14.47 16.43 14.44C16.44 14.42 16.44 14.4 16.45 14.38C16.46 14.33 16.47 14.28 16.49 14.23L16.5 14.19C16.51 14.15 16.52 14.11 16.52 14.07L16.54 14.01C16.55 13.96 16.56 13.91 16.57 13.85C16.57 13.84 16.58 13.83 16.58 13.82C16.59 13.77 16.6 13.73 16.61 13.68C16.61 13.66 16.61 13.64 16.62 13.62C16.63 13.58 16.63 13.53 16.64 13.48C16.64 13.47 16.65 13.46 16.65 13.45C16.66 13.39 16.67 13.33 16.68 13.28C16.68 13.26 16.68 13.24 16.68 13.22C16.69 13.17 16.7 13.12 16.71 13.07L16.71 13.03C16.72 12.97 16.73 12.91 16.74 12.85C16.74 12.83 16.74 12.81 16.74 12.79C16.75 12.74 16.75 12.69 16.76 12.65C16.76 12.63 16.76 12.61 16.76 12.59C16.77 12.53 16.78 12.47 16.78 12.4C16.78 12.39 16.79 12.37 16.79 12.35C16.79 12.3 16.8 12.25 16.8 12.2C16.8 12.18 16.8 12.16 16.8 12.14C16.81 12.07 16.81 12.01 16.82 11.94C16.82 11.92 16.82 11.91 16.82 11.89C16.82 11.84 16.83 11.78 16.83 11.72C16.83 11.7 16.83 11.68 16.83 11.66C16.83 11.59 16.84 11.52 16.84 11.45C16.84 11.44 16.84 11.43 16.84 11.42C16.84 11.36 16.84 11.3 16.84 11.23C16.84 11.21 16.84 11.19 16.84 11.17C16.84 11.1 16.84 11.03 16.84 10.96L16.84 10.94C16.84 10.87 16.84 10.79 16.84 10.72L16.84 10.65C16.84 10.59 16.84 10.52 16.84 10.45L16.84 10.42C16.84 10.34 16.83 10.26 16.83 10.18C16.83 10.16 16.83 10.14 16.83 10.12C16.82 10.05 16.82 9.98 16.82 9.92C16.82 9.9 16.82 9.88 16.81 9.87C16.81 9.79 16.8 9.7 16.8 9.62L16.79 9.56C16.79 9.5 16.78 9.43 16.78 9.36C16.78 9.34 16.78 9.32 16.77 9.3C16.77 9.21 16.76 9.13 16.75 9.04C16.75 9.03 16.75 9.01 16.75 8.99C16.74 8.92 16.73 8.85 16.72 8.77C16.72 8.75 16.72 8.73 16.72 8.71C16.71 8.62 16.7 8.53 16.68 8.44C16.68 8.43 16.68 8.42 16.68 8.41C16.67 8.33 16.66 8.25 16.65 8.16C16.65 8.14 16.64 8.12 16.64 8.09C16.63 8 16.61 7.91 16.6 7.81C15.23 -1.41 5.54 0.08 5.54 0.08L5.85 2.07L0 7.94L0.25 10.2L2.47 11.5C2.57 11.26 2.7 11.03 2.85 10.82C4.28 9.26 7.06 8.03 7.86 7.77C8.01 7.72 8.11 7.69 8.11 7.69C4.3 12.36 4.73 17.71 4.9 18.99C4.73 19.02 4.59 19.22 4.59 19.47C4.59 19.73 4.75 19.95 4.95 19.95L6.17 19.95C4.14 20.76 2.52 22.3 1.68 24.23C1.68 24.23 1.68 24.23 1.68 24.24C1.62 24.38 1.56 24.53 1.51 24.67C1.51 24.67 1.51 24.68 1.51 24.68C1.49 24.72 1.48 24.76 1.46 24.8C1.46 24.81 1.45 24.83 1.45 24.84C1.44 24.88 1.42 24.92 1.41 24.95C1.41 24.97 1.4 24.99 1.4 25.01C1.39 25.04 1.37 25.08 1.36 25.11L1.35 25.18C1.34 25.21 1.33 25.25 1.32 25.28C1.31 25.3 1.31 25.33 1.3 25.35C1.29 25.38 1.28 25.42 1.27 25.45C1.27 25.48 1.26 25.51 1.25 25.55C1.24 25.58 1.23 25.62 1.23 25.66L0.74 25.66C0.64 25.66 0.55 25.67 0.46 25.71C0.38 25.74 0.3 25.79 0.23 25.85C0.16 25.91 0.11 25.99 0.07 26.07C0.04 26.15 0.02 26.24 0.02 26.33C0.02 26.42 0.04 26.5 0.07 26.59C0.11 26.67 0.16 26.74 0.23 26.8C0.3 26.87 0.38 26.92 0.46 26.95C0.55 26.98 0.64 27 0.74 26.99L18.03 26.99C18.12 27 18.21 26.98 18.3 26.95C18.39 26.92 18.47 26.87 18.53 26.8C18.6 26.74 18.65 26.67 18.69 26.59C18.73 26.5 18.75 26.42 18.75 26.33C18.75 26.24 18.73 26.15 18.69 26.07C18.65 25.99 18.6 25.91 18.53 25.85C18.47 25.79 18.39 25.74 18.3 25.71C18.21 25.67 18.12 25.66 18.03 25.66L18.02 25.65Z" fill="#595653" fill-opacity="1.000000" fill-rule="nonzero"/>
	<path id="Vector" d="" fill="#E7DBD0" fill-opacity="0" fill-rule="evenodd"/>
</svg>
