<svg viewBox="0 0 36.0801 36.08" fill="none" xmlns="http://www.w3.org/2000/svg" xmlns:xlink="http://www.w3.org/1999/xlink">
	<defs/>
	<mask id="mask1_2163" mask-type="alpha" maskUnits="userSpaceOnUse" x="6.000000" y="0.000000" width="24.000000" height="34.000000">
		<rect id="bg" x="6.000000" width="24.000000" height="34.000000" fill="#DF1F1F" fill-opacity="1.000000"/>
	</mask>
	<g mask="url(#mask1_2163)">
		<path id="Vector" d="M18.33 2.37L18.77 1.57C18.99 1.17 18.84 0.66 18.43 0.44C18.03 0.22 17.52 0.37 17.3 0.78L16.91 1.49L15.28 4.49C14.43 6.02 14.95 7.09 16.44 7.99C16.63 8.1 16.79 8.25 16.91 8.42C16.95 8.47 16.98 8.53 17.01 8.58C17.13 8.81 17.2 9.06 17.2 9.32L17.2 10.4C17.09 10.42 16.98 10.43 16.87 10.45C13.04 11.01 10.08 14.3 10.08 18.32L10.08 24.83C10.08 29.22 13.65 32.79 18.03 32.79C22.42 32.79 25.99 29.22 25.99 24.83L25.99 18.31C25.99 14.29 23.02 11 19.2 10.45C19.09 10.43 18.98 10.42 18.87 10.4L18.87 9.32C18.87 8.19 18.27 7.13 17.3 6.56C17.24 6.52 17.18 6.48 17.12 6.45C16.56 6.12 16.36 6 16.75 5.29L18.33 2.37ZM18.04 12.33L17.41 12.39Q16.31 12.51 15.39 12.97Q14.41 13.45 13.63 14.31Q12.86 15.15 12.48 16.14Q12.08 17.15 12.08 18.32L12.08 24.83Q12.08 26.05 12.51 27.09Q12.94 28.16 13.83 29.04Q14.71 29.92 15.78 30.36Q16.82 30.79 18.03 30.79Q19.25 30.79 20.29 30.36Q21.36 29.92 22.24 29.04Q23.13 28.15 23.56 27.09Q23.99 26.05 23.99 24.83L23.99 18.31Q23.99 17.14 23.59 16.13Q23.2 15.14 22.44 14.31Q21.65 13.44 20.68 12.96Q19.76 12.51 18.66 12.39L18.04 12.33Z" fill="#B3B3B3" fill-opacity="1.000000" fill-rule="evenodd"/>
		<rect id="Rectangle 1440" x="11.309570" y="20.938080" width="13.400496" height="1.675062" fill="#000000" fill-opacity="1.000000"/>
		<rect id="Rectangle 1440" x="11.309570" y="20.938080" width="13.400496" height="1.675062" fill="#B3B3B3" fill-opacity="1.000000"/>
		<rect id="Rectangle 1441" x="18.004883" y="21.774292" width="10.887901" height="0.837531" transform="rotate(-90 18.004883 21.774292)" fill="#000000" fill-opacity="1.000000"/>
		<rect id="Rectangle 1441" x="18.004883" y="21.774292" width="10.887901" height="0.837531" transform="rotate(-90 18.004883 21.774292)" fill="#B3B3B3" fill-opacity="1.000000"/>
		<rect id="Rectangle 1439" x="17.166748" y="14.237091" rx="1.256296" width="2.512593" height="5.025185" fill="#FFFFFF" fill-opacity="1.000000"/>
		<rect id="Rectangle 1439" x="18.166748" y="15.237091" rx="0.256296" width="0.512593" height="3.025185" stroke="#B3B3B3" stroke-opacity="1.000000" stroke-width="2.000000"/>
		<rect id="Rectangle 1442" x="15.492432" y="8.372314" width="4.187655" height="2.010074" fill="#FFFFFF" fill-opacity="1.000000"/>
	</g>
</svg>
