<svg viewBox="0 0 24 24" fill="none" xmlns="http://www.w3.org/2000/svg" xmlns:xlink="http://www.w3.org/1999/xlink">
	<defs/>
	<rect width="23.000000" height="23.000000" transform="translate(0.500000 0.500000)" fill="#FFFFFF" fill-opacity="0"/>
	<path d="M8.00586 4L20 4C20.5522 4 21 4.44772 21 5C21 5.55228 20.5522 6 20 6L8.00586 6L8.00586 4ZM5.00586 4L3 4C2.44775 4 2 4.44772 2 5C2 5.55228 2.44775 6 3 6L5.00586 6L5.00586 4Z" clip-rule="evenodd" fill="#B3B3B3" fill-opacity="1.000000" fill-rule="evenodd"/>
	<rect x="5.000000" y="1.000000" rx="1.000000" width="2.000000" height="8.000000" fill="#B3B3B3" fill-opacity="1.000000"/>
	<rect x="10.000000" y="8.000000" rx="1.000000" width="2.000000" height="8.000000" fill="#B3B3B3" fill-opacity="1.000000"/>
	<rect x="16.000000" y="16.000000" rx="1.000000" width="2.000000" height="8.000000" fill="#B3B3B3" fill-opacity="1.000000"/>
	<path d="M13.0054 11L20 11C20.5522 11 21 11.4477 21 12C21 12.5523 20.5522 13 20 13L13.0054 13L13.0054 11ZM10.0054 11L3 11C2.44775 11 2 11.4477 2 12C2 12.5523 2.44775 13 3 13L10.0054 13L10.0054 11Z" clip-rule="evenodd" fill="#B3B3B3" fill-opacity="1.000000" fill-rule="evenodd"/>
	<path d="M18.9985 19L20 19C20.5522 19 21 19.4477 21 20C21 20.5523 20.5522 21 20 21L18.9985 21L18.9985 19ZM15.9985 19L3 19C2.44775 19 2 19.4477 2 20C2 20.5523 2.44775 21 3 21L15.9985 21L15.9985 19Z" clip-rule="evenodd" fill="#B3B3B3" fill-opacity="1.000000" fill-rule="evenodd"/>
</svg>
