<svg viewBox="0 0 24 24.0007" fill="none" xmlns="http://www.w3.org/2000/svg">
    <defs/>
    <rect transform="translate(0.500000 0.500000)" fill="#FFFFFF" fill-opacity="0"/>
    <g opacity="0.300000">
        <mask id="mask_1_2145" fill="white">
            <path d="M6 0L17 0C19.7615 0 22 2.23857 22 5L22 14.9565C22 17.7179 19.7615 19.9565 17 19.9565L16.2854 19.9565L12.8411 23.6797C12.4543 24.0978 11.7971 24.1089 11.3965 23.7043L7.68555 19.9565L6 19.9565C3.23853 19.9565 1 17.7179 1 14.9565L1 5C1 2.23857 3.23853 0 6 0Z"
                  clip-rule="evenodd" fill="" fill-opacity="1.000000" fill-rule="evenodd"/>
        </mask>
        <path d="M16.2854 19.9565L17 19.9565C19.7615 19.9565 22 17.7179 22 14.9565L22 5C22 2.23857 19.7615 0 17 0L6 0C3.23853 0 1 2.23857 1 5L1 14.9565C1 17.7179 3.23853 19.9565 6 19.9565L7.68555 19.9565L11.3965 23.7043C11.7971 24.1089 12.4543 24.0978 12.8411 23.6797L16.2854 19.9565ZM5.30214 2.08075Q5.64146 2 6 2L17 2Q17.3585 2 17.6979 2.08075Q17.9373 2.13774 18.1672 2.23494Q18.4072 2.33646 18.6229 2.47552Q18.8908 2.64817 19.1213 2.87868Q19.3511 3.10836 19.5233 3.37516Q19.6632 3.59179 19.7651 3.83289Q19.8615 4.06069 19.9183 4.29796Q20 4.63919 20 5L20 14.9565Q20 15.3173 19.9183 15.6585Q19.8615 15.8958 19.7651 16.1236Q19.6632 16.3647 19.5234 16.5813Q19.3511 16.8481 19.1213 17.0778Q18.8908 17.3083 18.623 17.481Q18.4072 17.6201 18.1672 17.7216Q17.9374 17.8188 17.6979 17.8758Q17.3586 17.9565 17 17.9565L16.2854 17.9565Q15.8675 17.9565 15.4846 18.1239Q15.1014 18.2914 14.8174 18.5984L12.0825 21.5546L9.10693 18.5493Q8.82495 18.2646 8.45511 18.1105Q8.08571 17.9565 7.68555 17.9565L6 17.9565Q5.64144 17.9565 5.3021 17.8758Q5.06265 17.8188 4.83276 17.7216Q4.5928 17.6201 4.37704 17.481Q4.1092 17.3083 3.87866 17.0778Q3.6489 16.8481 3.47664 16.5813Q3.33681 16.3647 3.23486 16.1236Q3.13848 15.8957 3.08166 15.6583Q3 15.3172 3 14.9565L3 5Q3 4.63919 3.08172 4.29796Q3.13854 4.06069 3.23486 3.83289Q3.33683 3.59179 3.47669 3.37516Q3.64894 3.10836 3.87866 2.87868Q4.10922 2.64817 4.37707 2.47552Q4.59282 2.33646 4.83276 2.23494Q5.06267 2.13774 5.30214 2.08075Z"
              clip-rule="evenodd" fill="#000000" fill-opacity="1.000000" fill-rule="evenodd"/>
        <path d="M8 7L15 7C15.55 7 16 7.44 16 8C16 8.55 15.55 9 15 9L8 9C7.44 9 7 8.55 7 8C7 7.44 7.44 7 8 7Z" fill="#000000" fill-opacity="1.000000" fill-rule="nonzero"/>
        <path d="M8 7L15 7C15.55 7 16 7.44 16 8C16 8.55 15.55 9 15 9L8 9C7.44 9 7 8.55 7 8C7 7.44 7.44 7 8 7Z" fill="#000000" fill-opacity="1.000000" fill-rule="nonzero"/>
        <path d="M8 11L15 11C15.55 11 16 11.44 16 12C16 12.55 15.55 13 15 13L8 13C7.44 13 7 12.55 7 12C7 11.44 7.44 11 8 11Z" fill="#000000" fill-opacity="1.000000" fill-rule="nonzero"/>
        <path d="M8 11L15 11C15.55 11 16 11.44 16 12C16 12.55 15.55 13 15 13L8 13C7.44 13 7 12.55 7 12C7 11.44 7.44 11 8 11Z" fill="#000000" fill-opacity="1.000000" fill-rule="nonzero"/>
    </g>
</svg>
