<svg viewBox="0 0 102 62.0001" fill="none" xmlns="http://www.w3.org/2000/svg" xmlns:xlink="http://www.w3.org/1999/xlink">
	<desc>
			Created with Pixso.
	</desc>
	<defs/>
	<path d="M43.28 4.85L44.45 4.18L51.73 0L59.01 4.18L66.29 8.37L66.29 16.56L61.5 13.8L61.5 11.12L56.61 8.31L51.73 5.5L46.84 8.31L43.28 10.36L43.28 4.85Z" fill="#DC0000" fill-opacity="1.000000" fill-rule="nonzero"/>
	<path d="M53.04 27.21L56.6 25.16L61.49 22.36L61.49 19.3L66.28 22.07L66.28 25.11L59 29.3L57.83 29.97L53.04 27.21Z" fill="#DC0000" fill-opacity="1.000000" fill-rule="nonzero"/>
	<path d="M51.72 33.48L44.44 29.29L37.16 25.11L37.16 16.73L37.16 8.36L41.95 5.61L41.95 11.11L41.95 16.73L41.95 19.03L41.95 22.35L46.84 25.16L46.89 25.19L51.72 27.97L56.51 30.73L51.72 33.48Z" fill="#000000" fill-opacity="1.000000" fill-rule="nonzero"/>
	<path d="M43.28 6.33L48.07 6.33L48.07 21.45L43.28 21.45L43.28 6.33Z" fill="#DC0000" fill-opacity="1.000000" fill-rule="evenodd"/>
	<path d="M60.24 25.83L57.84 29.96L43.28 21.45L45.67 17.32L60.24 25.83Z" fill="#DC0000" fill-opacity="1.000000" fill-rule="nonzero"/>
	<path d="M66.28 24.36L52.35 16.32L52.35 10.81L66.28 18.85L66.28 24.36Z" fill="#DC0000" fill-opacity="1.000000" fill-rule="nonzero"/>
	<path d="M12.14 62L0 62L0 47.88L3.23 47.88L3.23 58.77L12.14 58.77L12.14 62Z" fill="#000000" fill-opacity="1.000000" fill-rule="nonzero"/>
	<path d="M28.13 61.99L19.83 61.99L18.41 58.77L23.06 58.77L20.53 53.09L16.58 61.99L12.95 61.99L12.95 58.77L14.39 58.77L19.22 47.88L21.86 47.88L28.13 61.99Z" fill="#000000" fill-opacity="1.000000" fill-rule="nonzero"/>
	<path d="M42.09 61.99L38.85 61.99L32.17 53.99L32.17 61.99L28.93 61.99L28.93 47.88L32.17 47.88L38.85 55.88L38.85 47.88L42.09 47.88L42.09 61.99Z" fill="#000000" fill-opacity="1.000000" fill-rule="nonzero"/>
	<path d="M57.06 61.99L49.97 61.99C48.01 61.99 46.35 61.3 44.96 59.92C43.58 58.55 42.89 56.88 42.89 54.93C42.89 52.99 43.58 51.32 44.96 49.94C46.34 48.56 48.01 47.87 49.97 47.87L57.06 47.87L57.06 51.1L49.97 51.1C48.91 51.1 48 51.47 47.25 52.22C46.5 52.96 46.12 53.87 46.12 54.93C46.12 55.99 46.5 56.9 47.25 57.64C48 58.39 48.91 58.77 49.97 58.77L53.82 58.77L53.82 56.55L51.79 56.55L50.38 53.32L57.06 53.32L57.06 61.99Z" fill="#DC0000" fill-opacity="1.000000" fill-rule="nonzero"/>
	<path d="M73.06 61.99L64.76 61.99L63.34 58.77L67.99 58.77L65.47 53.09L61.51 61.99L57.88 61.99L57.88 58.77L59.32 58.77L64.16 47.88L66.79 47.88L73.06 61.99Z" fill="#DC0000" fill-opacity="1.000000" fill-rule="nonzero"/>
	<path d="M89.04 61.99L85.8 61.99L85.8 55.6L82.46 61.99L80.44 61.99L77.1 55.6L77.1 61.99L73.86 61.99L73.86 47.88L77.11 47.88L81.46 56.55L85.8 47.88L89.05 47.88L89.05 61.99L89.04 61.99Z" fill="#DC0000" fill-opacity="1.000000" fill-rule="nonzero"/>
	<path d="M102 61.99L89.85 61.99L89.85 47.88L102 47.88L102 51.11L93.09 51.11L93.09 53.32L99.97 53.32L99.97 56.55L93.09 56.55L93.09 58.76L102 58.76L102 61.99Z" fill="#DC0000" fill-opacity="1.000000" fill-rule="nonzero"/>
</svg>
