<svg viewBox="0 0 135 38" fill="none" xmlns="http://www.w3.org/2000/svg">
    <defs/>
    <rect rx="6.000000" width="135.000000" height="38.000000" fill="#000000" fill-opacity="1.000000"/>
    <path d="M26.79 19.3C26.8 18.46 27.02 17.64 27.44 16.92C27.85 16.19 28.44 15.58 29.15 15.14C28.7 14.5 28.1 13.97 27.41 13.59C26.72 13.22 25.94 13.01 25.16 12.99C23.48 12.81 21.85 13.99 20.99 13.99C20.12 13.99 18.81 13 17.39 13.03C16.47 13.06 15.57 13.33 14.79 13.81C14.01 14.29 13.36 14.96 12.91 15.76C10.98 19.11 12.42 24.03 14.27 26.74C15.2 28.06 16.28 29.54 17.7 29.49C19.09 29.43 19.61 28.61 21.28 28.61C22.94 28.61 23.43 29.49 24.87 29.46C26.36 29.43 27.3 28.13 28.19 26.79C28.86 25.84 29.37 24.8 29.71 23.7C28.85 23.33 28.11 22.72 27.59 21.94C27.07 21.15 26.79 20.24 26.79 19.3Z"
          fill="#FFFFFF" fill-opacity="1.000000" fill-rule="nonzero"/>
    <path d="M24.06 11.21C24.87 10.23 25.27 8.98 25.18 7.72C23.94 7.85 22.79 8.44 21.97 9.38C21.57 9.83 21.26 10.37 21.06 10.94C20.87 11.52 20.78 12.13 20.82 12.74C21.44 12.74 22.06 12.61 22.62 12.34C23.18 12.08 23.67 11.69 24.06 11.21Z"
          fill="#FFFFFF" fill-opacity="1.000000" fill-rule="nonzero"/>
    <path d="M47.33 26.14L42.59 26.14L41.46 29.49L39.45 29.49L43.93 17.07L46.02 17.07L50.5 29.49L48.46 29.49L47.33 26.14ZM43.08 24.59L46.83 24.59L44.98 19.14L44.93 19.14L43.08 24.59Z" fill="#FFFFFF" fill-opacity="1.000000" fill-rule="nonzero"/>
    <path d="M60.18 24.97C60.18 27.78 58.68 29.59 56.4 29.59C55.83 29.62 55.26 29.48 54.75 29.2C54.25 28.92 53.83 28.51 53.56 28L53.51 28L53.51 32.49L51.65 32.49L51.65 20.44L53.45 20.44L53.45 21.94L53.49 21.94C53.78 21.44 54.2 21.03 54.71 20.75C55.22 20.46 55.79 20.32 56.37 20.34C58.67 20.34 60.18 22.16 60.18 24.97ZM58.27 24.97C58.27 23.13 57.33 21.93 55.88 21.93C54.46 21.93 53.51 23.16 53.51 24.97C53.51 26.79 54.46 28.01 55.88 28.01C57.33 28.01 58.27 26.81 58.27 24.97Z"
          fill="#FFFFFF" fill-opacity="1.000000" fill-rule="nonzero"/>
    <path d="M70.15 24.97C70.15 27.78 68.64 29.59 66.37 29.59C65.79 29.62 65.22 29.48 64.72 29.2C64.21 28.92 63.8 28.51 63.52 28L63.48 28L63.48 32.49L61.62 32.49L61.62 20.44L63.42 20.44L63.42 21.94L63.45 21.94C63.74 21.44 64.17 21.03 64.67 20.75C65.18 20.46 65.76 20.32 66.34 20.34C68.63 20.34 70.15 22.16 70.15 24.97ZM68.24 24.97C68.24 23.13 67.29 21.93 65.85 21.93C64.43 21.93 63.47 23.16 63.47 24.97C63.47 26.79 64.43 28.01 65.85 28.01C67.29 28.01 68.24 26.81 68.24 24.97L68.24 24.97Z"
          fill="#FFFFFF" fill-opacity="1.000000" fill-rule="nonzero"/>
    <path d="M76.73 26.03C76.87 27.26 78.07 28.07 79.7 28.07C81.27 28.07 82.4 27.26 82.4 26.15C82.4 25.19 81.72 24.61 80.11 24.22L78.5 23.83C76.22 23.28 75.16 22.21 75.16 20.48C75.16 18.34 77.03 16.87 79.68 16.87C82.3 16.87 84.1 18.34 84.16 20.48L82.28 20.48C82.17 19.24 81.15 18.49 79.65 18.49C78.15 18.49 77.13 19.25 77.13 20.35C77.13 21.23 77.78 21.75 79.38 22.14L80.75 22.48C83.3 23.08 84.36 24.1 84.36 25.92C84.36 28.24 82.51 29.7 79.56 29.7C76.81 29.7 74.95 28.28 74.83 26.03L76.73 26.03Z"
          fill="#FFFFFF" fill-opacity="1.000000" fill-rule="nonzero"/>
    <path d="M88.37 18.3L88.37 20.44L90.09 20.44L90.09 21.91L88.37 21.91L88.37 26.9C88.37 27.68 88.71 28.04 89.47 28.04C89.68 28.03 89.88 28.02 90.08 27.99L90.08 29.46C89.74 29.52 89.4 29.55 89.05 29.54C87.22 29.54 86.5 28.85 86.5 27.1L86.5 21.91L85.19 21.91L85.19 20.44L86.5 20.44L86.5 18.3L88.37 18.3Z"
          fill="#FFFFFF" fill-opacity="1.000000" fill-rule="nonzero"/>
    <path d="M91.09 24.97C91.09 22.12 92.77 20.33 95.38 20.33C98.01 20.33 99.68 22.12 99.68 24.97C99.68 27.82 98.02 29.6 95.38 29.6C92.75 29.6 91.09 27.82 91.09 24.97ZM97.78 24.97C97.78 23.01 96.89 21.86 95.38 21.86C93.88 21.86 92.98 23.02 92.98 24.97C92.98 26.93 93.88 28.07 95.38 28.07C96.89 28.07 97.78 26.93 97.78 24.97L97.78 24.97Z"
          fill="#FFFFFF" fill-opacity="1.000000" fill-rule="nonzero"/>
    <path d="M101.21 20.44L102.98 20.44L102.98 21.98L103.03 21.98C103.15 21.5 103.43 21.07 103.82 20.77C104.22 20.48 104.71 20.32 105.2 20.34C105.42 20.34 105.63 20.37 105.84 20.41L105.84 22.15C105.57 22.07 105.29 22.03 105 22.04C104.73 22.03 104.47 22.08 104.22 22.18C103.97 22.28 103.74 22.44 103.56 22.63C103.37 22.83 103.23 23.07 103.15 23.32C103.07 23.58 103.04 23.85 103.07 24.12L103.07 29.49L101.21 29.49L101.21 20.44Z"
          fill="#FFFFFF" fill-opacity="1.000000" fill-rule="nonzero"/>
    <path d="M114.41 26.83C114.16 28.48 112.56 29.6 110.51 29.6C107.88 29.6 106.24 27.84 106.24 25.01C106.24 22.17 107.88 20.33 110.43 20.33C112.94 20.33 114.51 22.05 114.51 24.79L114.51 25.43L108.12 25.43L108.12 25.54C108.09 25.87 108.13 26.21 108.24 26.53C108.35 26.84 108.53 27.13 108.76 27.37C108.99 27.62 109.27 27.81 109.58 27.93C109.89 28.06 110.22 28.12 110.55 28.11C110.99 28.15 111.43 28.05 111.81 27.82C112.19 27.59 112.48 27.24 112.64 26.83L114.41 26.83ZM108.13 24.13L112.65 24.13C112.67 23.83 112.62 23.53 112.52 23.25C112.41 22.97 112.25 22.71 112.04 22.5C111.84 22.28 111.58 22.11 111.31 22C111.03 21.88 110.73 21.83 110.43 21.83C110.13 21.83 109.83 21.89 109.55 22C109.27 22.12 109.01 22.29 108.8 22.5C108.59 22.71 108.42 22.97 108.3 23.25C108.18 23.53 108.13 23.83 108.13 24.13L108.13 24.13Z"
          fill="#FFFFFF" fill-opacity="1.000000" fill-rule="nonzero"/>
    <path d="M49.78 14.45L49.78 12.24L48.61 12.24L48.61 5.83L44.35 5.83Q44.32 7.04 44.24 7.96Q44.16 8.87 44.06 9.56Q43.96 10.25 43.83 10.73Q43.71 11.2 43.57 11.51Q43.42 11.83 43.27 11.99Q43.11 12.16 42.96 12.24L42.23 12.24L42.23 14.74L42.81 14.74Q42.91 14.74 42.99 14.69Q43.01 14.68 43.03 14.66Q43.06 14.63 43.09 14.59Q43.12 14.53 43.12 14.45L43.12 13L48.9 13L48.9 14.74L49.47 14.74Q49.59 14.74 49.67 14.68Q49.68 14.67 49.69 14.66Q49.72 14.63 49.74 14.6Q49.78 14.53 49.78 14.45ZM47.64 6.6L47.64 12.24L44.1 12.24Q44.32 11.95 44.5 11.49Q44.68 11.03 44.83 10.35Q44.98 9.67 45.09 8.74Q45.2 7.82 45.27 6.6L47.64 6.6ZM53.56 8.04Q53.12 7.85 52.56 7.85Q52 7.85 51.55 8.04Q51.24 8.16 50.99 8.37Q50.88 8.46 50.79 8.56Q50.47 8.9 50.31 9.38Q50.14 9.87 50.14 10.46Q50.14 11.06 50.31 11.54Q50.47 12.02 50.79 12.36Q50.88 12.45 50.97 12.54Q51.23 12.75 51.55 12.88Q52 13.07 52.56 13.07Q53.12 13.07 53.56 12.88Q53.87 12.75 54.12 12.55Q54.23 12.46 54.32 12.36Q54.63 12.02 54.8 11.54Q54.97 11.06 54.97 10.46Q54.97 9.87 54.8 9.38Q54.63 8.9 54.32 8.56Q54.22 8.45 54.1 8.36Q53.86 8.16 53.56 8.04ZM59.54 8.92Q59.58 8.89 59.62 8.83L59.86 8.51Q59.68 8.34 59.48 8.21Q59.32 8.1 59.13 8.02Q58.73 7.85 58.19 7.85Q57.61 7.85 57.17 8.05Q56.86 8.18 56.61 8.4Q56.51 8.49 56.43 8.59Q56.12 8.93 55.97 9.42Q55.81 9.89 55.81 10.46Q55.81 11.08 55.98 11.57Q56.15 12.05 56.45 12.38Q56.61 12.56 56.81 12.7Q56.97 12.81 57.16 12.89Q57.2 12.91 57.25 12.93Q57.62 13.07 58.04 13.07Q58.31 13.07 58.58 13.02Q58.84 12.98 59.09 12.88Q59.33 12.78 59.54 12.64Q59.58 12.61 59.63 12.57Q59.78 12.45 59.91 12.28L59.66 11.96Q59.64 11.92 59.6 11.9Q59.55 11.87 59.49 11.87Q59.41 11.87 59.31 11.95Q59.22 12.03 59.08 12.13Q58.94 12.22 58.73 12.3Q58.52 12.37 58.2 12.37Q57.86 12.37 57.59 12.25Q57.48 12.2 57.39 12.14Q57.24 12.03 57.12 11.88Q56.93 11.64 56.83 11.28Q56.72 10.92 56.72 10.46Q56.72 10.02 56.82 9.66Q56.92 9.31 57.11 9.06Q57.21 8.93 57.34 8.83Q57.45 8.74 57.58 8.68Q57.87 8.54 58.24 8.54Q58.52 8.54 58.72 8.61Q58.91 8.67 59.04 8.74Q59.17 8.82 59.26 8.88Q59.35 8.94 59.43 8.94Q59.5 8.94 59.54 8.92ZM85.48 8.04Q85.03 7.85 84.47 7.85Q83.92 7.85 83.47 8.04Q83.15 8.16 82.9 8.37Q82.8 8.46 82.7 8.56Q82.39 8.9 82.22 9.38Q82.05 9.87 82.05 10.46Q82.05 11.06 82.22 11.54Q82.39 12.02 82.7 12.36Q82.79 12.45 82.89 12.54Q83.14 12.75 83.47 12.88Q83.92 13.07 84.47 13.07Q85.03 13.07 85.48 12.88Q85.79 12.75 86.04 12.55Q86.14 12.46 86.23 12.36Q86.55 12.02 86.72 11.54Q86.88 11.06 86.88 10.46Q86.88 9.87 86.72 9.38Q86.55 8.9 86.23 8.56Q86.13 8.45 86.02 8.36Q85.78 8.16 85.48 8.04ZM63.14 8.61L65.08 8.61L65.08 7.93L60.3 7.93L60.3 8.61L62.25 8.61L62.25 13L63.14 13L63.14 8.61ZM67.47 14.49L70.3 7.93L69.59 7.93Q69.55 7.93 69.51 7.94Q69.46 7.96 69.43 7.98Q69.39 8.01 69.36 8.05Q69.34 8.08 69.32 8.11L68.01 11.3Q67.93 11.51 67.86 11.75Q67.81 11.52 67.72 11.31L66.37 8.11Q66.35 8.04 66.28 7.99L66.28 7.99Q66.21 7.93 66.09 7.93L65.33 7.93L67.41 12.7L66.49 14.71L67.15 14.71Q67.29 14.71 67.36 14.65Q67.42 14.59 67.47 14.49ZM74.41 13L75.3 13L75.3 7.93L71.08 7.93L71.08 13L71.97 13L71.97 8.61L74.41 8.61L74.41 13ZM80.93 13L80.93 7.93L80.04 7.93L80.04 9.95L77.6 9.95L77.6 7.93L76.71 7.93L76.71 13L77.6 13L77.6 10.62L80.04 10.62L80.04 13L80.93 13ZM93.23 8.02Q92.89 7.93 92.43 7.93L90.57 7.93L90.57 13L92.52 13Q92.91 13 93.26 12.9Q93.61 12.81 93.86 12.63Q94.02 12.51 94.14 12.36Q94.21 12.27 94.27 12.17Q94.42 11.9 94.42 11.53Q94.42 11.18 94.26 10.93Q94.2 10.82 94.1 10.73Q93.79 10.43 93.2 10.33Q93.5 10.26 93.69 10.12Q93.88 9.99 93.99 9.83Q94.11 9.66 94.15 9.48Q94.2 9.3 94.2 9.14Q94.2 8.97 94.15 8.81Q94.13 8.74 94.1 8.67Q94.08 8.64 94.07 8.61Q93.97 8.42 93.78 8.28Q93.57 8.12 93.23 8.02ZM91.43 10.12L91.43 8.53L92.4 8.53Q92.68 8.53 92.88 8.59Q93.08 8.65 93.2 8.76Q93.3 8.85 93.35 8.96Q93.36 8.98 93.36 8.99Q93.4 9.08 93.41 9.16Q93.41 9.21 93.41 9.26Q93.41 9.44 93.35 9.58Q93.35 9.6 93.34 9.61Q93.31 9.67 93.28 9.72Q93.22 9.81 93.13 9.88Q92.99 9.99 92.81 10.06Q92.62 10.12 92.4 10.12L91.43 10.12ZM53.44 12.11Q53.1 12.37 52.56 12.37Q52.01 12.37 51.66 12.1Q51.53 12 51.43 11.87Q51.06 11.36 51.06 10.47Q51.06 10.01 51.15 9.66Q51.24 9.3 51.43 9.06Q51.52 8.94 51.63 8.85Q51.75 8.75 51.9 8.68Q52.18 8.55 52.56 8.55Q53.09 8.55 53.43 8.81Q53.57 8.91 53.68 9.05Q54.05 9.56 54.05 10.47Q54.05 11.36 53.68 11.87Q53.57 12.01 53.44 12.11ZM85.35 12.11Q85.01 12.37 84.47 12.37Q83.92 12.37 83.57 12.1Q83.44 12 83.34 11.87Q82.97 11.36 82.97 10.47Q82.97 10.01 83.06 9.66Q83.16 9.3 83.34 9.06Q83.43 8.94 83.55 8.85Q83.67 8.75 83.81 8.68Q84.1 8.55 84.47 8.55Q85.01 8.55 85.35 8.81Q85.49 8.91 85.6 9.05Q85.97 9.56 85.97 10.47Q85.97 11.36 85.6 11.87Q85.49 12.01 85.35 12.11ZM93.3 12.14Q93.01 12.37 92.51 12.37L91.43 12.37L91.43 10.69L92.52 10.69Q92.82 10.69 93.03 10.75Q93.23 10.81 93.36 10.91Q93.45 10.99 93.5 11.1Q93.52 11.13 93.54 11.17Q93.6 11.32 93.6 11.5Q93.6 11.75 93.49 11.93Q93.42 12.05 93.3 12.14Z"
          fill="#FFFFFF" fill-opacity="1.000000" fill-rule="evenodd"/>
</svg>
