<svg viewBox="0 0 135 38" fill="none" xmlns="http://www.w3.org/2000/svg">

    <defs>
        <linearGradient x1="21.799643" y1="10.709639" x2="5.017233" y2="27.492054" id="paint_linear_1_1399_0" gradientUnits="userSpaceOnUse">
            <stop stop-color="#00A0FF"/>
            <stop offset="0.006570" stop-color="#00A1FF"/>
            <stop offset="0.260100" stop-color="#00BEFF"/>
            <stop offset="0.512200" stop-color="#00D2FF"/>
            <stop offset="0.760400" stop-color="#00DFFF"/>
            <stop offset="1.000000" stop-color="#00E3FF"/>
        </linearGradient>
        <linearGradient x1="33.834415" y1="20.001661" x2="9.637518" y2="20.001661" id="paint_linear_1_1400_0" gradientUnits="userSpaceOnUse">
            <stop stop-color="#FFE000"/>
            <stop offset="0.408700" stop-color="#FFBD00"/>
            <stop offset="0.775400" stop-color="#FFA500"/>
            <stop offset="1.000000" stop-color="#FF9C00"/>
        </linearGradient>
        <linearGradient x1="24.827095" y1="22.296072" x2="2.068806" y2="45.054352" id="paint_linear_1_1401_0" gradientUnits="userSpaceOnUse">
            <stop stop-color="#FF3A44"/>
            <stop offset="1.000000" stop-color="#C31162"/>
        </linearGradient>
        <linearGradient x1="7.297476" y1="0.175749" x2="17.459995" y2="10.338268" id="paint_linear_1_1402_0" gradientUnits="userSpaceOnUse">
            <stop stop-color="#32A071"/>
            <stop offset="0.068500" stop-color="#2DA771"/>
            <stop offset="0.476200" stop-color="#15CF74"/>
            <stop offset="0.800900" stop-color="#06E775"/>
            <stop offset="1.000000" stop-color="#00F076"/>
        </linearGradient>
    </defs>
    <rect rx="6.000000" width="135.000000" height="38.000000" fill="#000000" fill-opacity="1.000000"/>
    <path d="M68.13 21.75C67.29 21.75 66.47 22 65.77 22.47C65.07 22.94 64.53 23.61 64.21 24.38C63.89 25.16 63.81 26.02 63.98 26.84C64.14 27.66 64.55 28.42 65.14 29.01C65.74 29.61 66.5 30.01 67.32 30.17C68.15 30.34 69 30.25 69.78 29.93C70.55 29.61 71.22 29.06 71.68 28.36C72.15 27.66 72.4 26.84 72.4 26C72.41 25.44 72.3 24.88 72.09 24.36C71.88 23.84 71.56 23.37 71.17 22.97C70.77 22.57 70.29 22.26 69.77 22.05C69.25 21.84 68.69 21.74 68.13 21.75ZM68.13 28.58C67.61 28.61 67.1 28.49 66.65 28.23C66.2 27.97 65.84 27.58 65.62 27.12C65.39 26.65 65.31 26.12 65.39 25.61C65.47 25.1 65.7 24.62 66.06 24.24C66.41 23.86 66.87 23.59 67.37 23.48C67.88 23.37 68.41 23.41 68.89 23.6C69.38 23.79 69.79 24.12 70.08 24.55C70.37 24.97 70.53 25.48 70.53 26C70.55 26.33 70.5 26.66 70.38 26.96C70.27 27.27 70.1 27.55 69.87 27.79C69.65 28.03 69.38 28.23 69.08 28.36C68.78 28.5 68.46 28.57 68.13 28.58ZM58.82 21.75C57.98 21.75 57.16 22 56.46 22.47C55.76 22.94 55.22 23.61 54.9 24.38C54.58 25.16 54.5 26.02 54.66 26.84C54.83 27.66 55.24 28.42 55.83 29.01C56.43 29.61 57.18 30.01 58.01 30.17C58.83 30.34 59.69 30.25 60.46 29.93C61.24 29.61 61.9 29.06 62.37 28.36C62.84 27.66 63.09 26.84 63.09 26C63.09 25.44 62.99 24.88 62.78 24.36C62.57 23.84 62.25 23.37 61.85 22.97C61.45 22.57 60.98 22.26 60.46 22.05C59.94 21.84 59.38 21.74 58.82 21.75ZM58.82 28.58C58.3 28.61 57.78 28.49 57.33 28.23C56.89 27.97 56.53 27.58 56.3 27.12C56.08 26.65 56 26.12 56.08 25.61C56.16 25.1 56.39 24.62 56.74 24.24C57.1 23.86 57.56 23.59 58.06 23.48C58.57 23.37 59.1 23.41 59.58 23.6C60.06 23.79 60.48 24.12 60.77 24.55C61.06 24.97 61.22 25.48 61.22 26C61.23 26.33 61.18 26.66 61.07 26.96C60.96 27.27 60.78 27.55 60.56 27.79C60.34 28.03 60.07 28.23 59.77 28.36C59.47 28.5 59.15 28.57 58.82 28.58ZM47.74 23.05L47.74 24.86L52.06 24.86C51.99 25.7 51.65 26.5 51.07 27.13C50.64 27.57 50.12 27.91 49.55 28.14C48.97 28.37 48.36 28.47 47.74 28.45C46.48 28.43 45.27 27.92 44.39 27.02C43.5 26.12 43 24.91 43 23.65C43 22.39 43.5 21.17 44.39 20.28C45.27 19.38 46.48 18.86 47.74 18.85C48.95 18.83 50.12 19.29 50.99 20.14L52.27 18.86C51.67 18.27 50.96 17.81 50.19 17.5C49.41 17.18 48.58 17.03 47.74 17.04C46.86 17.03 45.99 17.19 45.18 17.52C44.37 17.84 43.63 18.33 43.01 18.94C42.38 19.56 41.89 20.29 41.55 21.1C41.21 21.91 41.04 22.77 41.04 23.65C41.04 24.52 41.21 25.39 41.55 26.2C41.89 27.01 42.38 27.74 43.01 28.35C43.63 28.97 44.37 29.45 45.18 29.78C45.99 30.1 46.86 30.27 47.74 30.25C48.59 30.29 49.45 30.14 50.24 29.82C51.04 29.5 51.75 29.02 52.35 28.4C53.4 27.25 53.96 25.74 53.91 24.18C53.91 23.8 53.88 23.42 53.81 23.05L47.74 23.05ZM93.05 24.45C92.79 23.68 92.3 23.01 91.65 22.53C91 22.04 90.22 21.77 89.41 21.75C88.86 21.75 88.32 21.86 87.82 22.08C87.32 22.3 86.87 22.62 86.49 23.02C86.12 23.41 85.82 23.88 85.64 24.4C85.45 24.91 85.37 25.45 85.39 26C85.38 26.56 85.48 27.12 85.69 27.63C85.9 28.15 86.21 28.63 86.6 29.02C86.99 29.42 87.46 29.73 87.98 29.95C88.5 30.16 89.06 30.26 89.62 30.25C90.32 30.26 91.01 30.09 91.62 29.76C92.24 29.43 92.77 28.95 93.16 28.37L91.71 27.4C91.49 27.76 91.18 28.06 90.82 28.27C90.45 28.47 90.04 28.58 89.62 28.58C89.18 28.59 88.75 28.48 88.39 28.25C88.02 28.02 87.73 27.69 87.55 27.29L93.24 24.94L93.05 24.45ZM87.25 25.87C87.23 25.56 87.27 25.25 87.37 24.96C87.47 24.66 87.63 24.39 87.84 24.16C88.04 23.93 88.3 23.75 88.58 23.61C88.86 23.48 89.16 23.4 89.47 23.39C89.79 23.37 90.11 23.44 90.4 23.6C90.68 23.76 90.9 24 91.05 24.29L87.25 25.87ZM82.62 30L84.49 30L84.49 17.49L82.62 17.49L82.62 30ZM79.56 22.7L79.5 22.7C79.21 22.39 78.87 22.14 78.48 21.98C78.09 21.82 77.68 21.74 77.26 21.75C76.16 21.79 75.13 22.26 74.37 23.05C73.61 23.85 73.18 24.9 73.18 26C73.18 27.1 73.61 28.15 74.37 28.95C75.13 29.74 76.16 30.21 77.26 30.25C77.68 30.26 78.1 30.18 78.48 30.02C78.87 29.85 79.22 29.6 79.5 29.29L79.56 29.29L79.56 29.9C79.56 31.53 78.69 32.4 77.29 32.4C76.82 32.38 76.37 32.23 75.99 31.97C75.61 31.7 75.31 31.32 75.15 30.88L73.52 31.56C73.83 32.3 74.35 32.94 75.02 33.39C75.69 33.84 76.48 34.08 77.29 34.07C79.48 34.07 81.33 32.78 81.33 29.64L81.33 22L79.56 22L79.56 22.7ZM77.42 28.58C76.77 28.52 76.17 28.23 75.73 27.75C75.29 27.27 75.05 26.65 75.05 26C75.05 25.35 75.29 24.73 75.73 24.25C76.17 23.77 76.77 23.48 77.42 23.42C77.74 23.44 78.06 23.52 78.35 23.66C78.64 23.8 78.89 24 79.11 24.24C79.32 24.48 79.48 24.76 79.58 25.07C79.68 25.37 79.72 25.7 79.69 26.02C79.72 26.33 79.68 26.66 79.58 26.96C79.47 27.26 79.31 27.54 79.1 27.78C78.89 28.02 78.63 28.21 78.34 28.35C78.05 28.49 77.74 28.56 77.42 28.58ZM101.8 17.49L97.33 17.49L97.33 30L99.19 30L99.19 25.26L101.8 25.26C102.33 25.29 102.86 25.21 103.35 25.03C103.85 24.84 104.3 24.56 104.69 24.2C105.07 23.84 105.38 23.4 105.59 22.91C105.79 22.43 105.9 21.91 105.9 21.38C105.9 20.85 105.79 20.33 105.59 19.84C105.38 19.35 105.07 18.92 104.69 18.55C104.3 18.19 103.85 17.91 103.35 17.73C102.86 17.54 102.33 17.47 101.8 17.49ZM101.85 23.52L99.19 23.52L99.19 19.23L101.85 19.23C102.13 19.23 102.42 19.28 102.68 19.38C102.95 19.49 103.19 19.65 103.39 19.85C103.6 20.05 103.76 20.28 103.87 20.55C103.98 20.81 104.04 21.09 104.04 21.38C104.04 21.66 103.98 21.94 103.87 22.21C103.76 22.47 103.6 22.71 103.39 22.91C103.19 23.11 102.95 23.26 102.68 23.37C102.42 23.47 102.13 23.53 101.85 23.52ZM113.38 21.72C112.7 21.68 112.02 21.84 111.43 22.18C110.84 22.52 110.36 23.03 110.05 23.64L111.71 24.33C111.87 24.03 112.12 23.78 112.42 23.62C112.73 23.45 113.07 23.38 113.41 23.41C113.89 23.37 114.36 23.51 114.73 23.81C115.09 24.11 115.33 24.55 115.38 25.02L115.38 25.15C114.78 24.83 114.11 24.67 113.43 24.67C111.64 24.67 109.83 25.65 109.83 27.48C109.84 27.87 109.94 28.25 110.11 28.6C110.27 28.95 110.51 29.26 110.8 29.51C111.09 29.77 111.42 29.97 111.79 30.09C112.16 30.21 112.54 30.26 112.93 30.23C113.4 30.26 113.87 30.16 114.29 29.95C114.71 29.73 115.06 29.41 115.31 29.01L115.38 29.01L115.38 29.97L117.18 29.97L117.18 25.18C117.18 22.96 115.52 21.72 113.38 21.72ZM113.16 28.58C112.54 28.58 111.69 28.27 111.69 27.51C111.69 26.55 112.75 26.18 113.67 26.18C114.27 26.16 114.85 26.31 115.38 26.6C115.31 27.14 115.04 27.64 114.64 28C114.23 28.37 113.7 28.57 113.16 28.58ZM123.74 22L121.6 27.42L121.53 27.42L119.32 22L117.31 22L120.63 29.57L118.74 33.79L120.68 33.79L125.81 22L123.74 22ZM106.93 30L108.8 30L108.8 17.49L106.93 17.49L106.93 30Z"
          fill="#FFFFFF" fill-opacity="1.000000" fill-rule="nonzero"/>
    <path d="M10.43 9.53C10.1 9.93 9.94 10.43 9.97 10.94L9.97 33.05C9.94 33.56 10.1 34.07 10.43 34.46L10.5 34.53L22.89 22.14L22.89 21.85L10.5 9.46L10.43 9.53Z" fill="url(#paint_linear_1_1399_0)" fill-opacity="1.000000" fill-rule="nonzero"/>
    <path d="M27.02 24.27L22.89 20.14L22.89 19.85L27.02 15.72L27.12 15.77L32.01 18.55C33.41 19.35 33.41 20.65 32.01 21.44L27.12 24.22L27.02 24.27Z" fill="url(#paint_linear_1_1400_0)" fill-opacity="1.000000" fill-rule="nonzero"/>
    <path d="M27.12 24.22L22.89 20L10.43 32.46C10.72 32.71 11.08 32.85 11.46 32.86C11.84 32.88 12.21 32.75 12.51 32.52L27.12 24.22Z" fill="url(#paint_linear_1_1401_0)" fill-opacity="1.000000" fill-rule="nonzero"/>
    <path d="M27.12 15.77L12.51 7.47C12.21 7.24 11.84 7.12 11.46 7.13C11.08 7.14 10.72 7.28 10.43 7.53L22.89 20L27.12 15.77Z" fill="url(#paint_linear_1_1402_0)" fill-opacity="1.000000" fill-rule="nonzero"/>
    <g opacity="0.200000">
        <path d="M27.02 24.13L12.51 32.37C12.22 32.59 11.87 32.71 11.51 32.71C11.15 32.72 10.8 32.6 10.51 32.38L10.43 32.46L10.5 32.53L10.51 32.53C10.79 32.75 11.15 32.86 11.51 32.86C11.87 32.86 12.22 32.74 12.51 32.52L27.12 24.22L27.02 24.13Z"
              fill="#000000" fill-opacity="1.000000" fill-rule="nonzero"/>
    </g>
    <g opacity="0.120000">
        <path d="M10.43 34.31C10.1 33.92 9.94 33.42 9.97 32.91L9.97 33.05C9.94 33.56 10.1 34.07 10.43 34.46L10.5 34.39L10.43 34.31Z" fill="#000000" fill-opacity="1.000000" fill-rule="nonzero"/>
    </g>
    <g opacity="0.120000">
        <path d="M32.01 21.29L27.02 24.13L27.12 24.22L32.01 21.44C32.3 21.32 32.55 21.12 32.73 20.86C32.92 20.61 33.03 20.31 33.06 20C33 20.28 32.87 20.54 32.69 20.77C32.51 20.99 32.27 21.17 32.01 21.29Z" fill="#000000" fill-opacity="1.000000"
              fill-rule="nonzero"/>
    </g>
    <g opacity="0.250000">
        <path d="M12.51 7.62L32.01 18.7C32.27 18.82 32.51 19 32.69 19.22C32.87 19.45 33 19.71 33.06 20C33.03 19.68 32.92 19.38 32.73 19.13C32.55 18.88 32.3 18.68 32.01 18.55L12.51 7.47C11.11 6.68 9.97 7.34 9.97 8.94L9.97 9.08C9.97 7.48 11.11 6.82 12.51 7.62Z"
              fill="#FFFFFF" fill-opacity="1.000000" fill-rule="nonzero"/>
    </g>
    <path d="M43.05 7.35Q42.95 7.42 42.87 7.5L43.1 7.95Q43.14 8.04 43.19 8.07Q43.24 8.1 43.32 8.1Q43.41 8.1 43.54 8.02Q43.66 7.94 43.85 7.83Q44.05 7.73 44.34 7.64Q44.62 7.56 45.03 7.56Q45.38 7.56 45.65 7.64Q45.92 7.72 46.12 7.87Q46.26 7.98 46.35 8.12Q46.38 8.17 46.41 8.22Q46.42 8.26 46.44 8.29Q46.51 8.47 46.51 8.67Q46.51 8.94 46.4 9.15Q46.35 9.25 46.28 9.34Q46.2 9.43 46.1 9.51Q45.91 9.65 45.65 9.72Q45.39 9.8 45.08 9.8L44.14 9.8L44.14 10.59L45.12 10.59Q45.49 10.59 45.79 10.69Q46.09 10.78 46.29 10.95Q46.41 11.04 46.49 11.16Q46.56 11.25 46.6 11.35Q46.61 11.36 46.61 11.37Q46.71 11.6 46.71 11.87Q46.71 12.19 46.6 12.45Q46.54 12.59 46.45 12.7Q46.37 12.81 46.27 12.89Q46.06 13.07 45.75 13.16Q45.43 13.26 45.04 13.26Q44.57 13.26 44.25 13.15Q43.93 13.04 43.71 12.9Q43.48 12.76 43.33 12.65Q43.19 12.54 43.09 12.54Q43.06 12.54 43.03 12.55Q42.99 12.56 42.95 12.58Q42.91 12.61 42.87 12.65Q42.86 12.66 42.86 12.67L42.58 13.13Q43.01 13.56 43.63 13.81Q44.24 14.07 45.01 14.07Q45.63 14.07 46.12 13.89Q46.61 13.71 46.94 13.41Q47.12 13.25 47.25 13.05Q47.37 12.89 47.44 12.7Q47.47 12.63 47.5 12.56Q47.62 12.21 47.62 11.82Q47.62 11.58 47.55 11.36Q47.54 11.33 47.53 11.29Q47.5 11.2 47.45 11.1Q47.38 10.96 47.28 10.84Q47.12 10.63 46.89 10.46Q46.67 10.29 46.4 10.17Q46.77 10 47.02 9.71Q47.09 9.63 47.15 9.54Q47.2 9.45 47.25 9.36Q47.41 9.01 47.41 8.59Q47.41 8.27 47.3 7.99Q47.28 7.92 47.25 7.85Q47.21 7.78 47.17 7.71Q47.01 7.47 46.77 7.28Q46.46 7.03 46.02 6.9Q45.58 6.76 45.02 6.76Q44.34 6.76 43.81 6.95Q43.39 7.1 43.05 7.35ZM49.52 9.04Q49.04 9.24 48.62 9.64L48.77 9.93Q48.8 9.97 48.84 10.01Q48.86 10.03 48.88 10.05Q48.9 10.06 48.91 10.07Q48.97 10.1 49.04 10.1Q49.16 10.1 49.27 10.01Q49.39 9.93 49.55 9.83Q49.71 9.72 49.94 9.64Q50.16 9.56 50.49 9.56Q50.87 9.56 51.11 9.74Q51.18 9.8 51.23 9.86Q51.49 10.16 51.49 10.76L51.49 11.15Q50.63 11.17 50.03 11.31Q49.43 11.45 49.06 11.66Q48.69 11.88 48.53 12.15Q48.41 12.36 48.38 12.57Q48.36 12.65 48.36 12.73Q48.36 13.07 48.48 13.33Q48.58 13.56 48.75 13.71Q48.76 13.73 48.78 13.75Q48.79 13.75 48.8 13.76Q48.99 13.91 49.23 13.99Q49.5 14.08 49.79 14.08Q50.08 14.08 50.32 14.02Q50.55 13.97 50.76 13.87Q50.97 13.78 51.17 13.63Q51.36 13.49 51.56 13.3L51.66 13.79Q51.69 13.91 51.76 13.95Q51.83 14 51.97 14L52.36 14L52.36 10.76Q52.36 10.33 52.24 9.98Q52.13 9.62 51.9 9.37Q51.86 9.32 51.81 9.28Q51.62 9.09 51.35 8.98Q51.02 8.84 50.6 8.84Q50.01 8.84 49.52 9.04ZM59.32 9.15Q58.97 9.37 58.7 9.72L58.61 9.11Q58.59 9.02 58.53 8.98Q58.48 8.93 58.38 8.93L57.85 8.93L57.85 15.71L58.74 15.71L58.74 13.47Q58.92 13.67 59.15 13.81Q59.23 13.87 59.33 13.91Q59.66 14.07 60.13 14.07Q60.64 14.07 61.04 13.86Q61.26 13.75 61.45 13.6Q61.6 13.47 61.73 13.31Q62.02 12.96 62.16 12.47Q62.32 11.99 62.32 11.43Q62.32 10.8 62.18 10.32Q62.04 9.83 61.79 9.5Q61.62 9.28 61.4 9.13Q61.3 9.06 61.19 9.01Q60.83 8.84 60.39 8.84Q59.91 8.84 59.52 9.04Q59.48 9.06 59.43 9.08Q59.38 9.11 59.32 9.15ZM68.8 9.02Q68.39 9.18 68.11 9.45L68.32 9.8Q68.36 9.87 68.41 9.9Q68.45 9.93 68.52 9.93Q68.58 9.93 68.67 9.87Q68.76 9.81 68.9 9.73Q69.05 9.66 69.25 9.61Q69.46 9.54 69.76 9.54Q70.03 9.54 70.24 9.61Q70.44 9.66 70.58 9.76Q70.72 9.86 70.78 9.99Q70.78 10 70.79 10Q70.82 10.08 70.84 10.15Q70.85 10.22 70.85 10.28Q70.85 10.37 70.83 10.45Q70.81 10.53 70.77 10.59Q70.7 10.74 70.54 10.84Q70.39 10.94 70.16 10.99Q69.94 11.05 69.67 11.05L69.09 11.05L69.09 11.64L69.67 11.64Q70.31 11.64 70.62 11.87Q70.79 12 70.87 12.16Q70.93 12.3 70.93 12.47Q70.93 12.63 70.88 12.76Q70.87 12.8 70.85 12.84Q70.84 12.86 70.82 12.89Q70.75 13.02 70.62 13.12Q70.47 13.24 70.25 13.31Q70.03 13.37 69.76 13.37Q69.45 13.37 69.23 13.3Q69.01 13.22 68.86 13.13Q68.71 13.03 68.61 12.95Q68.5 12.87 68.42 12.87Q68.36 12.87 68.31 12.9Q68.27 12.92 68.25 12.96L68 13.28Q68.11 13.43 68.25 13.54Q68.31 13.59 68.37 13.64Q68.44 13.69 68.52 13.73Q68.67 13.81 68.82 13.88Q69.06 13.97 69.3 14.02Q69.31 14.02 69.32 14.02Q69.57 14.07 69.81 14.07Q70.21 14.07 70.56 13.96Q70.92 13.86 71.19 13.66Q71.37 13.52 71.51 13.35Q71.57 13.27 71.62 13.18Q71.66 13.11 71.69 13.04Q71.78 12.81 71.78 12.54Q71.78 12.23 71.65 11.98Q71.59 11.86 71.5 11.76Q71.23 11.44 70.74 11.29Q71 11.21 71.17 11.08Q71.35 10.96 71.46 10.81Q71.57 10.66 71.62 10.49Q71.67 10.33 71.67 10.17Q71.67 10.1 71.66 10.04Q71.63 9.86 71.54 9.68Q71.42 9.44 71.18 9.26Q70.95 9.08 70.59 8.96Q70.24 8.85 69.79 8.85Q69.21 8.85 68.8 9.02ZM87.24 13.63Q87.47 13.48 87.63 13.28L87.39 12.96Q87.36 12.92 87.32 12.9Q87.28 12.87 87.21 12.87Q87.13 12.87 87.01 12.95Q86.89 13.03 86.72 13.12Q86.55 13.21 86.3 13.29Q86.06 13.37 85.73 13.37Q85.36 13.37 85.07 13.25Q84.95 13.2 84.85 13.13Q84.7 13.03 84.58 12.89Q84.37 12.65 84.25 12.3Q84.13 11.94 84.11 11.47L87.5 11.47Q87.61 11.47 87.66 11.41Q87.66 11.4 87.67 11.39Q87.72 11.32 87.72 11.11Q87.72 10.57 87.55 10.15Q87.4 9.73 87.11 9.44Q87.02 9.35 86.92 9.27Q86.7 9.11 86.44 9Q86.05 8.85 85.6 8.85Q85.05 8.85 84.61 9.04Q84.27 9.19 84.02 9.42Q83.94 9.49 83.86 9.57Q83.85 9.59 83.84 9.6Q83.55 9.93 83.4 10.37Q83.24 10.83 83.24 11.36Q83.24 12.02 83.41 12.52Q83.59 13.03 83.92 13.37Q84.06 13.52 84.23 13.64Q84.44 13.79 84.68 13.89Q85.12 14.07 85.65 14.07Q85.93 14.07 86.2 14.02Q86.48 13.97 86.75 13.88Q87.01 13.78 87.24 13.63ZM54.61 9.61L57 9.61L57 8.93L53.72 8.93L53.72 14L54.61 14L54.61 9.61ZM64.86 15.49L67.68 8.93L66.98 8.93Q66.93 8.93 66.89 8.94Q66.85 8.96 66.81 8.98Q66.77 9.01 66.75 9.05Q66.72 9.08 66.71 9.11L65.4 12.3Q65.32 12.51 65.24 12.75Q65.19 12.52 65.11 12.31L63.75 9.11Q63.73 9.04 63.66 8.99L63.66 8.99Q63.6 8.93 63.48 8.93L62.71 8.93L64.8 13.7L63.87 15.71L64.54 15.71Q64.68 15.71 64.74 15.65Q64.81 15.59 64.86 15.49ZM77.26 14L77.26 8.93L76.73 8.93Q76.7 8.93 76.68 8.93Q76.61 8.95 76.54 9Q76.46 9.08 76.4 9.16L73.96 12.48Q73.91 12.55 73.87 12.63Q73.82 12.72 73.78 12.81Q73.79 12.7 73.8 12.58Q73.81 12.47 73.81 12.37L73.81 8.93L72.92 8.93L72.92 14L73.46 14Q73.5 14 73.53 13.99Q73.59 13.97 73.64 13.93Q73.72 13.86 73.78 13.78L76.22 10.45Q76.28 10.38 76.32 10.3Q76.37 10.21 76.41 10.11Q76.39 10.23 76.38 10.34Q76.38 10.46 76.38 10.56L76.38 14L77.26 14ZM80.94 9.61L82.88 9.61L82.88 8.93L78.1 8.93L78.1 9.61L80.05 9.61L80.05 14L80.94 14L80.94 9.61ZM94.02 9.02Q93.69 8.93 93.22 8.93L91.37 8.93L91.37 14L93.31 14Q93.71 14 94.05 13.9Q94.4 13.81 94.66 13.63Q94.82 13.51 94.94 13.36Q95.01 13.27 95.06 13.17Q95.21 12.9 95.21 12.53Q95.21 12.18 95.06 11.93Q94.99 11.82 94.9 11.73Q94.58 11.43 94 11.33Q94.29 11.26 94.48 11.12Q94.68 10.99 94.79 10.83Q94.9 10.66 94.94 10.48Q94.99 10.3 94.99 10.14Q94.99 9.97 94.95 9.81Q94.92 9.74 94.89 9.67Q94.88 9.64 94.86 9.61Q94.76 9.42 94.58 9.28Q94.36 9.12 94.02 9.02ZM86.83 10.34Q86.91 10.6 86.91 10.91L84.15 10.91Q84.24 10.25 84.61 9.88Q84.68 9.81 84.76 9.75Q85.1 9.51 85.62 9.51Q85.93 9.51 86.16 9.61Q86.32 9.68 86.45 9.78Q86.52 9.84 86.57 9.9Q86.58 9.9 86.58 9.91Q86.74 10.09 86.83 10.34ZM92.22 11.12L92.22 9.53L93.19 9.53Q93.48 9.53 93.68 9.59Q93.87 9.65 93.99 9.76Q94.09 9.85 94.14 9.96Q94.15 9.98 94.16 9.99Q94.19 10.08 94.2 10.16Q94.21 10.21 94.21 10.26Q94.21 10.44 94.15 10.58Q94.14 10.6 94.13 10.61Q94.11 10.67 94.07 10.72Q94.01 10.81 93.92 10.88Q93.79 10.99 93.6 11.06Q93.41 11.12 93.19 11.12L92.22 11.12ZM59.27 13.24Q58.99 13.1 58.74 12.77L58.74 10.33Q59.02 9.96 59.34 9.76Q59.37 9.74 59.41 9.72Q59.71 9.56 60.1 9.56Q60.41 9.56 60.65 9.66Q60.71 9.69 60.77 9.73Q60.93 9.83 61.05 10Q61.22 10.23 61.31 10.58Q61.4 10.94 61.4 11.43Q61.4 12.36 61.01 12.87Q60.88 13.05 60.7 13.16Q60.38 13.37 59.93 13.37Q59.56 13.37 59.27 13.24ZM94.1 13.14Q93.81 13.37 93.31 13.37L92.22 13.37L92.22 11.69L93.31 11.69Q93.61 11.69 93.82 11.75Q94.03 11.81 94.15 11.91Q94.25 11.99 94.3 12.1Q94.32 12.13 94.33 12.17Q94.39 12.32 94.39 12.5Q94.39 12.75 94.28 12.93Q94.21 13.05 94.1 13.14ZM50.44 11.81Q50.87 11.73 51.49 11.71L51.49 12.76Q51.34 12.93 51.18 13.05Q51.03 13.17 50.85 13.27Q50.68 13.36 50.48 13.4Q50.29 13.45 50.05 13.45Q49.88 13.45 49.73 13.41Q49.58 13.37 49.47 13.28Q49.47 13.28 49.46 13.27Q49.45 13.26 49.44 13.25Q49.34 13.17 49.29 13.04Q49.22 12.89 49.22 12.69Q49.22 12.58 49.25 12.48Q49.28 12.39 49.34 12.31Q49.47 12.14 49.74 12.02Q50.01 11.89 50.44 11.81Z"
          fill="#FFFFFF" fill-opacity="1.000000" fill-rule="evenodd"/>
</svg>
